<?xml version="1.0" encoding="UTF-8"?>
<svg version="1.1" xmlns="http://www.w3.org/2000/svg" width="1024" height="1024">
<path d="M0 0 C337.92 0 675.84 0 1024 0 C1024 337.92 1024 675.84 1024 1024 C686.08 1024 348.16 1024 0 1024 C0 686.08 0 348.16 0 0 Z " fill="#7552ED" transform="translate(0,0)"/>
<path d="M0 0 C8.01639609 7.56554253 17.39034325 18.3251026 18.33855057 29.78013229 C18.40585561 32.38148475 18.40748214 34.97548023 18.38720703 37.57763672 C18.38749908 38.5636235 18.38779114 39.54961029 18.38809204 40.56547546 C18.386703 43.81197019 18.37116167 47.05823305 18.35546875 50.3046875 C18.35173711 52.56055577 18.34889085 54.81642567 18.34689331 57.07229614 C18.33926875 63.00049336 18.31963028 68.92859209 18.29748535 74.85675049 C18.27700161 80.90969511 18.26788618 86.96265569 18.2578125 93.015625 C18.23638335 104.88545986 18.20226154 116.75522173 18.16015625 128.625 C14.60651907 126.26976347 11.13749267 123.86297497 7.72265625 121.3125 C-2.52160328 114.21566437 -13.18876949 110.37387342 -25.08984375 107.0625 C-38.92219415 103.19618261 -49.12111087 99.21771322 -56.77734375 86.375 C-58.54453625 80.13784999 -59.08832849 73.65870123 -56.5859375 67.578125 C-54.79476772 64.54876403 -52.8767399 62.05470296 -50.52734375 59.4375 C-49.78871094 58.59832031 -49.05007813 57.75914062 -48.2890625 56.89453125 C-43.77810668 52.71452275 -39.86024707 51.32848908 -33.77734375 51.25 C-28.68533549 50.99696388 -28.68533549 50.99696388 -24.65234375 48.1875 C-21.7428935 44.0741393 -21.49566685 41.70160923 -21.83984375 36.625 C-23.07276087 33.85093648 -23.99235026 32.18348649 -26.53515625 30.5078125 C-33.63664732 27.78758033 -43.32650279 28.97815933 -50.40234375 31.45703125 C-64.22621844 38.08097121 -71.98072422 48.91249599 -77.83984375 62.625 C-81.99002105 75.33663578 -79.72217295 87.98009523 -74.08984375 99.9375 C-65.59554517 115.66538618 -50.41694543 123.26511215 -33.74365234 128.25195312 C-31.59015326 128.86261026 -29.43400486 129.4631169 -27.27734375 130.0625 C-9.30767148 135.15846797 6.69038437 145.08286684 16.16015625 161.625 C16.51093231 162.18946838 16.86170837 162.75393677 17.22311401 163.33551025 C18.49610263 166.44582297 18.39946363 169.05477825 18.38720703 172.41308594 C18.38749908 173.08666641 18.38779114 173.76024689 18.38809204 174.45423889 C18.38670266 176.67275026 18.37116026 178.89092256 18.35546875 181.109375 C18.35173722 182.65065324 18.34889091 184.19193387 18.34689331 185.73321533 C18.33926786 189.78402286 18.31962878 193.8346863 18.29748535 197.88543701 C18.27700345 202.0212611 18.26788658 206.15710853 18.2578125 210.29296875 C18.23638178 218.40371923 18.20120857 226.51432507 18.16015625 234.625 C25.42015625 234.625 32.68015625 234.625 40.16015625 234.625 C40.1512738 232.03914566 40.14239136 229.45329132 40.13323975 226.78907776 C40.05150241 202.43668544 39.99197371 178.0843112 39.95290756 153.73181248 C39.93228846 141.21153406 39.90418013 128.69135635 39.85839844 116.17114258 C39.81851094 105.25764474 39.7927187 94.34421984 39.78380227 83.43065113 C39.77859082 77.65278305 39.76635521 71.87512363 39.73723602 66.09732246 C39.71003692 60.6562939 39.70172045 55.21555947 39.70772552 49.77446938 C39.70662731 47.78027497 39.69870039 45.78607048 39.68333435 43.79193497 C39.66333609 41.06219063 39.66825278 38.33354657 39.67913818 35.60377502 C39.66748682 34.82067335 39.65583545 34.03757168 39.64383101 33.23073965 C39.74649259 23.6600662 44.70811897 16.17729438 50.16015625 8.625 C50.86140625 7.635 51.56265625 6.645 52.28515625 5.625 C59.15002905 -2.25200148 68.12184946 -7.73189876 78.16015625 -10.375 C78.81161621 -10.55015137 79.46307617 -10.72530273 80.13427734 -10.90576172 C85.94222751 -12.3497555 91.43991913 -12.68927289 97.41015625 -12.625 C98.79702637 -12.61376099 98.79702637 -12.61376099 100.21191406 -12.60229492 C107.34912245 -12.49058101 114.18661958 -11.98297569 121.16015625 -10.375 C122.10955078 -10.1569873 122.10955078 -10.1569873 123.078125 -9.93457031 C139.63634526 -5.98425205 155.023791 1.48863475 167.16015625 13.625 C169.14569424 13.85315017 169.14569424 13.85315017 171.421875 13.71484375 C172.28627197 13.69252686 173.15066895 13.67020996 174.04125977 13.6472168 C174.96737061 13.61926025 175.89348145 13.59130371 176.84765625 13.5625 C197.93924862 13.27013419 215.71029786 19.3478161 231.35546875 33.62890625 C237.65688247 40.39656807 242.53133436 48.55137367 244.53515625 57.5625 C245.30435094 60.36627042 245.30435094 60.36627042 247.16015625 62.625 C251.2795759 64.41624819 255.33792832 65.43987189 259.6953125 66.46875 C278.03189458 70.8723405 290.79406291 84.97368408 300.25537109 100.41210938 C305.43352638 109.27178541 310.01739088 120.47257517 310.20019531 130.91137695 C310.28713087 135.50036143 310.28713087 135.50036143 312.68505859 139.23999023 C314.78019628 140.71332006 316.91203454 141.9607151 319.16015625 143.1875 C320.72565984 144.12521199 322.28819441 145.06789929 323.84765625 146.015625 C324.59789062 146.46357422 325.348125 146.91152344 326.12109375 147.37304688 C342.17122946 157.22758422 349.39086531 175.40189989 353.91015625 192.875 C355.78851708 201.66661783 356.40217696 210.68084441 357.16015625 219.625 C365.82693629 221.41386732 374.4631659 222.86576753 383.26171875 223.8359375 C384.12134216 223.93255676 384.98096558 224.02917603 385.86663818 224.12872314 C389.40871361 224.52420838 392.95084834 224.91496159 396.49658203 225.27636719 C399.12913167 225.54786226 401.75756917 225.84599514 404.38671875 226.1484375 C405.57740463 226.25966446 405.57740463 226.25966446 406.79214478 226.37313843 C412.38800095 227.04609833 415.176899 228.61234602 419.16015625 232.625 C420.4427858 235.19025911 420.34886031 237.11706502 420.42895508 239.98925781 C420.46181107 241.11092346 420.49466705 242.23258911 420.52851868 243.38824463 C420.55777939 244.60590515 420.5870401 245.82356567 420.6171875 247.078125 C420.64745529 248.32623962 420.67772308 249.57435425 420.70890808 250.86029053 C420.76977864 253.50661552 420.82784313 256.15287066 420.88256836 258.79931641 C420.9539098 262.18023181 421.04892482 265.56004616 421.14934254 268.94020462 C421.23974043 272.17329475 421.30136386 275.40695563 421.3671875 278.640625 C421.4262603 280.4549704 421.4262603 280.4549704 421.48652649 282.30596924 C421.58329365 288.72652012 421.59402507 292.79317349 417.16015625 297.625 C413.05413614 301.21776759 408.09046227 303.05587245 403.03515625 304.9375 C397.09170015 307.33284755 394.24642671 310.08421242 391.16015625 315.625 C390.79664063 316.24246094 390.433125 316.85992187 390.05859375 317.49609375 C385.00976129 326.7651335 382.83786941 336.81431336 380.78515625 347.0625 C377.54004321 363.19387656 373.82511123 378.95840346 366.16015625 393.625 C365.53456669 394.86949548 364.90959635 396.11430237 364.28515625 397.359375 C360.23276118 405.31893595 355.75676554 412.63166326 350.16015625 419.625 C349.71655762 420.18074707 349.27295898 420.73649414 348.81591797 421.30908203 C330.96939804 443.46150579 308.43203444 455.3664291 281.16015625 462.1328125 C280.12665039 462.3913501 279.09314453 462.6498877 278.02832031 462.91625977 C275.98150127 463.42251574 273.93138151 463.91564435 271.87792969 464.39428711 C265.05131873 465.91532795 265.05131873 465.91532795 260.16015625 470.625 C259.45133322 473.53284881 259.82043836 475.567539 260.16015625 478.625 C261.75174658 480.88619143 262.6995447 481.5293713 265.41796875 482.09375 C285.27907611 482.31021983 308.59826998 477.08425603 325.59375 466.5078125 C327.16015625 465.625 327.16015625 465.625 329.16015625 465.625 C329.49015625 464.635 329.82015625 463.645 330.16015625 462.625 C332.49348958 461.95833333 334.82682292 461.29166667 337.16015625 460.625 C337.49015625 459.635 337.82015625 458.645 338.16015625 457.625 C339.73887791 456.4162002 341.37461842 455.28119701 343.03515625 454.1875 C349.69225571 449.45451703 354.97914379 443.87621814 360.16015625 437.625 C360.63565918 437.05313965 361.11116211 436.4812793 361.60107422 435.89208984 C381.19014289 411.94407706 392.64248864 384.82697009 398.16015625 354.625 C400.31040273 357.85036972 400.89404611 360.17621732 401.72265625 363.9375 C402.09583984 365.60232422 402.09583984 365.60232422 402.4765625 367.30078125 C407.54261323 391.93626224 403.9960899 417.38855388 395.4296875 440.77734375 C393.41296032 446.56956341 392.5022639 451.03489361 395.09765625 456.75 C401.51103421 474.54267009 396.83432747 499.61609821 389.34375 516.4609375 C385.09227835 525.4792107 379.91436609 533.24854302 373.16015625 540.625 C372.40089844 541.46546875 371.64164063 542.3059375 370.859375 543.171875 C367.32925148 546.89265986 363.98304966 550.2438423 359.51953125 552.8046875 C352.72683862 556.55250325 352.72683862 556.55250325 348.32714844 562.66162109 C347.16193325 567.44355661 346.84680756 572.30990306 346.44384766 577.203125 C343.99544824 598.10512344 329.9340535 615.57876576 313.90625 628.26171875 C303.91081465 635.84173442 292.94305775 642.23340082 280.74780273 645.39404297 C271.56532277 647.7844301 268.07166911 651.56925154 263.16015625 659.625 C249.88781716 676.58831339 231.40510705 685.72491423 211.16015625 691.625 C209.65388672 692.06972656 209.65388672 692.06972656 208.1171875 692.5234375 C195.01210481 696.09594317 181.65433495 696.96509851 168.14086914 696.88574219 C165.96277395 696.87495104 163.78549361 696.8857587 161.60742188 696.8984375 C149.68698405 696.91155573 138.30481397 695.47345133 126.78515625 692.375 C125.97916992 692.15884033 125.17318359 691.94268066 124.34277344 691.7199707 C92.43540579 682.87957499 65.02456195 663.49360701 47.9765625 634.90234375 C43.38967204 626.62621235 40.52809291 618.31854782 38.76660156 609.05541992 C38.02202272 605.56900324 37.28471873 603.75097796 34.75390625 601.19140625 C31.24749619 599.0738303 29.18894905 598.97751544 25.16015625 599.625 C20.83573575 603.13093853 19.4828424 605.74639073 18.59765625 611.1875 C15.01799437 630.0051761 6.89258145 643.79858812 -6.49853516 657.26025391 C-7.63687993 658.41848967 -8.73356619 659.61743734 -9.8203125 660.82421875 C-24.24428941 676.521836 -45.62992003 686.06931494 -65.83984375 691.625 C-67.1544458 691.99117432 -67.1544458 691.99117432 -68.49560547 692.36474609 C-82.15967519 696.0083379 -95.45789923 697.08167952 -109.52734375 697.0625 C-110.66523346 697.06283234 -110.66523346 697.06283234 -111.82611084 697.06317139 C-125.32990819 697.02107383 -138.3392124 695.73769851 -151.33984375 691.875 C-152.23856201 691.61041992 -153.13728027 691.34583984 -154.06323242 691.07324219 C-174.53427353 684.89067608 -195.07194988 674.38177299 -207.56445312 656.42504883 C-212.92296637 648.74861188 -217.74451584 646.64738563 -226.83984375 644.625 C-251.27373151 636.39564118 -270.69857873 617.35292962 -282.33984375 594.70703125 C-287.78828768 583.21016593 -289.6033788 572.1642093 -290.83984375 559.625 C-291.56171875 559.37492188 -292.28359375 559.12484375 -293.02734375 558.8671875 C-296.09203979 557.51361341 -298.26366306 555.88339963 -300.83984375 553.75 C-301.66484375 553.07195313 -302.48984375 552.39390625 -303.33984375 551.6953125 C-304.16484375 551.01210938 -304.98984375 550.32890625 -305.83984375 549.625 C-306.67773438 548.985625 -307.515625 548.34625 -308.37890625 547.6875 C-312.8644001 543.92822896 -316.25986426 539.22783077 -319.83984375 534.625 C-320.79310547 533.41263672 -320.79310547 533.41263672 -321.765625 532.17578125 C-333.71263872 516.14929944 -338.00420541 496.96477136 -338.08984375 477.375 C-338.11046875 476.21097656 -338.13109375 475.04695313 -338.15234375 473.84765625 C-338.18632573 466.26117827 -337.16007617 459.82897196 -334.83984375 452.625 C-333.45825571 448.25920211 -334.82082608 445.46225778 -336.52734375 441.375 C-347.07917348 414.6369576 -350.55298277 382.14556055 -340.83984375 354.625 C-338.5762651 358.02036798 -338.22061757 360.310226 -337.52734375 364.3125 C-332.43263023 391.05328059 -319.69422319 417.03458599 -301.83984375 437.625 C-300.77830078 438.86830078 -300.77830078 438.86830078 -299.6953125 440.13671875 C-279.59707893 463.12121353 -251.48853343 477.61157136 -220.8359375 479.84375 C-215.74814886 480.00634245 -211.8786106 480.12526461 -207.83984375 476.625 C-206.34485462 473.63502175 -206.72406929 470.92457225 -206.83984375 467.625 C-207.16984375 466.635 -207.49984375 465.645 -207.83984375 464.625 C-210.46813525 463.87009799 -212.97259544 463.30707222 -215.65234375 462.8125 C-229.7171422 459.9461063 -244.10357184 456.41104488 -256.83984375 449.625 C-257.80921875 449.11324219 -258.77859375 448.60148437 -259.77734375 448.07421875 C-267.13351773 443.99266814 -273.55206143 439.20114184 -279.83984375 433.625 C-280.53722656 433.01140625 -281.23460937 432.3978125 -281.953125 431.765625 C-292.12576513 422.2249525 -299.282681 409.80258797 -305.83984375 397.625 C-306.37351562 396.66335938 -306.9071875 395.70171875 -307.45703125 394.7109375 C-316.03146303 378.58389741 -319.8902125 360.59040149 -323.40234375 342.8125 C-323.64726562 341.58917969 -323.8921875 340.36585938 -324.14453125 339.10546875 C-324.58046817 336.92333509 -325.00426484 334.73870275 -325.41015625 332.55078125 C-327.14730084 324.31583631 -329.75916799 314.76836313 -335.83984375 308.625 C-339.64509154 306.25303319 -343.70369399 304.69206817 -347.9609375 303.32128906 C-353.83776016 301.40111559 -357.59625838 299.02462426 -360.83984375 293.625 C-361.83113815 290.45838023 -361.98793385 287.52557276 -362.03271484 284.21728516 C-362.05680923 282.59507553 -362.05680923 282.59507553 -362.08139038 280.94009399 C-362.12596658 276.01150254 -362.16688076 271.08304271 -362.18994141 266.15429688 C-362.20652071 263.55492207 -362.23383617 260.95559322 -362.27197266 258.35644531 C-362.32671318 254.60457766 -362.34860981 250.85377559 -362.36328125 247.1015625 C-362.38595062 245.94202057 -362.40862 244.78247864 -362.43197632 243.58779907 C-362.40839616 234.5879273 -362.40839616 234.5879273 -359.74462891 230.97021484 C-354.23790331 226.52429065 -347.67089861 226.19763563 -340.86328125 225.40625 C-340.01617584 225.30284302 -339.16907043 225.19943604 -338.29629517 225.09289551 C-335.60308789 224.76496059 -332.90905711 224.44455411 -330.21484375 224.125 C-326.68063812 223.70079264 -323.14684075 223.27330472 -319.61328125 222.84375 C-318.76674988 222.74118896 -317.92021851 222.63862793 -317.04803467 222.53295898 C-310.28784804 221.703853 -303.56109723 220.72952548 -296.83984375 219.625 C-296.87126465 218.62098145 -296.87126465 218.62098145 -296.90332031 217.59667969 C-297.51303497 193.72102796 -290.63877035 171.29830034 -273.98657227 153.75878906 C-267.83306979 147.47408867 -261.79517415 141.52148836 -253.83984375 137.625 C-253.17984375 137.625 -252.51984375 137.625 -251.83984375 137.625 C-251.89205078 135.88476562 -251.89205078 135.88476562 -251.9453125 134.109375 C-251.94065825 129.87586856 -251.23288631 125.95856943 -250.15234375 121.875 C-249.97082764 121.18108154 -249.78931152 120.48716309 -249.60229492 119.7722168 C-244.44057776 100.74071355 -232.33948074 81.62608366 -215.078125 71.19140625 C-206.20851408 66.34901399 -197.85821674 64.26069553 -187.83984375 64.625 C-187.70449219 63.13613281 -187.70449219 63.13613281 -187.56640625 61.6171875 C-186.93341947 57.23039064 -185.23785594 53.6590545 -183.21484375 49.75 C-182.85438965 49.04673584 -182.49393555 48.34347168 -182.12255859 47.61889648 C-179.23181829 42.11505401 -176.09878909 37.18562064 -171.83984375 32.625 C-171.15921875 31.87992188 -170.47859375 31.13484375 -169.77734375 30.3671875 C-164.87373951 25.48014949 -159.64621764 22.17771037 -153.46484375 19.1875 C-152.79404785 18.85741943 -152.12325195 18.52733887 -151.43212891 18.18725586 C-142.36369179 14.06494491 -133.03827659 13.47935551 -123.20068359 13.60327148 C-110.73018791 13.68542353 -104.34255946 12.56005273 -95.38867188 3.94726562 C-71.58920924 -16.37081282 -24.25048539 -20.28101116 0 0 Z " fill="#F8F8F8" transform="translate(482.83984375,171.375)"/>
<path d="M0 0 C3.69996129 0.00570212 7.39985079 0.00230281 11.09980965 -0.00343132 C48.60142112 -0.05310525 48.60142112 -0.05310525 64.87768555 2.50537109 C65.67948242 2.61880859 66.4812793 2.73224609 67.30737305 2.84912109 C72.14644601 3.58516132 76.56909936 4.78084667 81.1809082 6.40771484 C83.98835082 7.33125676 86.81321494 7.92281882 89.70629883 8.51025391 C101.33219432 10.89519102 110.49538505 15.03264791 117.37768555 25.13037109 C122.62372434 34.75708869 121.95967133 45.13710612 121.81518555 55.75537109 C121.80869995 56.6646637 121.80221436 57.5739563 121.79553223 58.51080322 C121.68752358 73.2203515 120.91543652 87.61487305 118.37768555 102.13037109 C118.2384668 102.95472656 118.09924805 103.77908203 117.95581055 104.62841797 C112.70275503 134.80916749 102.76049467 162.74584479 81.37768555 185.13037109 C80.44375977 186.17644531 80.44375977 186.17644531 79.4909668 187.24365234 C60.33262498 207.92823523 25.9679698 214.83299318 -1.1887207 216.44677734 C-37.86234673 217.79049717 -82.82312433 209.59590313 -110.62231445 184.13037109 C-139.69316377 155.81403237 -155.05630512 109.71931661 -155.7902832 69.81787109 C-155.80208456 67.58872616 -155.80852143 65.35954689 -155.80981445 63.13037109 C-155.82206055 62.01919922 -155.83430664 60.90802734 -155.84692383 59.76318359 C-155.87003205 46.668526 -153.58509364 34.32080867 -144.49731445 24.25537109 C-136.32020124 17.09378553 -125.87313984 13.95489123 -115.49731445 11.50537109 C-114.28301758 11.21178711 -113.0687207 10.91820312 -111.81762695 10.61572266 C-75.12196229 2.00328061 -37.55065084 -0.05830117 0 0 Z " fill="#7552ED" transform="translate(719.622314453125,402.86962890625)"/>
<path d="M0 0 C2.09395672 0.00931731 4.18788285 0.01368003 6.28185654 0.0173378 C41.50128308 0.10269406 77.24186476 1.48134999 111.67654037 9.44662857 C112.83347397 9.71378677 113.99040756 9.98094498 115.18239975 10.25619888 C118.73173948 11.09784448 122.26792718 11.97884957 125.80154037 12.88412857 C127.37621078 13.28015274 127.37621078 13.28015274 128.98269272 13.6841774 C139.35760408 16.5102609 148.65801048 21.24271898 154.67654037 30.44662857 C167.21444599 55.48987381 161.48441705 91.64759456 153.08279037 117.34115982 C152.61707822 118.7106862 152.14819854 120.07913858 151.67654037 121.44662857 C151.42001694 122.20636978 151.1634935 122.96611099 150.89919662 123.74887466 C140.1013988 155.45126073 122.2347904 185.79508805 91.30154037 201.11850357 C74.27912797 208.48981608 55.86102986 211.65492882 37.61404037 214.32162857 C36.5161821 214.4858783 36.5161821 214.4858783 35.39614487 214.6534462 C21.65463398 216.68125859 8.311681 217.17679241 -5.51095963 215.25912857 C-6.48146255 215.12748306 -7.45196548 214.99583755 -8.45187759 214.86020279 C-38.02959846 210.59080679 -65.15126894 200.39635544 -84.32345963 176.44662857 C-90.23059107 168.34514774 -95.34199492 159.64776147 -99.32345963 150.44662857 C-99.59367935 149.82304459 -99.86389908 149.1994606 -100.14230728 148.55698013 C-107.11969488 131.94642435 -109.92003898 114.05975094 -112.97842789 96.40076065 C-113.28724085 94.6517583 -113.62039985 92.90709536 -113.95676041 91.1631813 C-115.58106048 82.13008396 -115.62826117 73.18349966 -115.58420181 64.03525162 C-115.5734633 61.38503599 -115.58416404 58.73549585 -115.59689713 56.08530045 C-115.62099793 29.15509621 -115.62099793 29.15509621 -106.31174088 19.32162857 C-96.33638567 9.85113428 -84.02907175 6.87627676 -70.55353165 5.70918655 C-68.43397436 5.45964005 -66.47602641 5.03714315 -64.40793228 4.51913834 C-43.58212636 -0.2017711 -21.22332942 -0.10057463 0 0 Z " fill="#7652ED" transform="translate(298.32345962524414,402.55337142944336)"/>
<path d="M0 0 C8.28087164 1.81720377 16.52804303 3.35252293 24.9375 4.4375 C25.81486816 4.55262939 26.69223633 4.66775879 27.59619141 4.78637695 C65.1950584 9.41021977 103.94545077 7.8092551 140.89526367 -0.33056641 C156.87715431 -3.81142285 156.87715431 -3.81142285 163.125 -0.6875 C168.09817363 3.60751359 171.56885309 7.31988403 172.1875 14.125 C171.9181644 28.85765757 162.02012394 41.96195658 152.875 52.6875 C151.98748047 53.79351563 151.98748047 53.79351563 151.08203125 54.921875 C135.10432061 74.13600891 110.00029149 87.72786141 85.23242188 90.50439453 C64.15194902 92.1417552 44.08124173 91.11150957 24.875 81.6875 C23.51181641 81.02621094 23.51181641 81.02621094 22.12109375 80.3515625 C-1.00520365 68.44299969 -20.89470081 48.03738502 -30.30859375 23.6171875 C-31.89352488 17.92963559 -32.55733438 11.69109082 -29.95703125 6.23828125 C-21.89588103 -4.97272716 -12.09850561 -2.79800952 0 0 Z " fill="#7551ED" transform="translate(441.125,635.3125)"/>
<path d="M0 0 C2.75329021 1.79562405 4.52627461 3.05254922 6 6 C7.30968225 15.39229273 4.19812401 23.22799606 -0.984375 30.9609375 C-12.05392757 45.28854986 -30.52728778 55.07245734 -48.42382812 57.80224609 C-51.43362294 58.03328607 -54.31556156 57.89565249 -57.328125 57.70703125 C-70.16309443 56.33069354 -70.16309443 56.33069354 -81.578125 61.04296875 C-84.81525294 64.18254931 -87.63265286 67.64429241 -90.43554688 71.17089844 C-97.08656202 78.94702289 -107.4631192 83.03929671 -117 86 C-117.66 86 -118.32 86 -119 86 C-118.67902344 87.27230469 -118.35804688 88.54460937 -118.02734375 89.85546875 C-115.20435082 102.645202 -115.35709036 116.51475886 -122 128 C-122.46921875 128.87785156 -122.9384375 129.75570312 -123.421875 130.66015625 C-131.64072965 145.30827623 -143.10557364 152.89860586 -159 158 C-164.33206862 159.26221958 -170.91407788 160.66069704 -175.9453125 157.953125 C-178.77397838 155.63006607 -180.80296228 153.67320556 -181.23828125 149.9765625 C-181.27501953 148.81253906 -181.27501953 148.81253906 -181.3125 147.625 C-181.36857422 146.46871094 -181.36857422 146.46871094 -181.42578125 145.2890625 C-180.81487055 142.00471689 -179.66829949 140.98955876 -177 139 C-174.41912025 138.20522577 -172.0056986 137.58943811 -169.375 137.0625 C-158.81625155 134.65166335 -150.15553756 131.44613077 -144 122 C-142.39301921 118.74194444 -141.09520381 115.46225721 -140 112 C-139.8040625 111.39929688 -139.608125 110.79859375 -139.40625 110.1796875 C-138.79905552 106.9218556 -138.85602925 103.67591085 -138.875 100.375 C-138.87113281 99.694375 -138.86726562 99.01375 -138.86328125 98.3125 C-138.81594889 94.53042368 -138.81594889 94.53042368 -140 91 C-155.92242126 88.74167938 -155.92242126 88.74167938 -170.31640625 93.80078125 C-173.25333994 96.72711229 -175.78549772 99.98744955 -178.37841797 103.21728516 C-186.3090942 111.93601413 -200.98640134 118.28983768 -212.578125 119.203125 C-218.76907948 119.31173824 -224.47740577 119.04773872 -230 116 C-232.99802786 112.78260425 -233.88003169 110.83977814 -234.5 106.5 C-233.8727251 102.10907572 -232.14282813 99.14282813 -229 96 C-227.56803653 95.89118876 -226.13126507 95.84420647 -224.6953125 95.82421875 C-210.27526476 95.48555423 -199.7480138 93.88918155 -188 85 C-187.38382813 84.54882812 -186.76765625 84.09765625 -186.1328125 83.6328125 C-181.66711242 80.1197951 -178.79011185 75.96923918 -175.625 71.28515625 C-173.69072607 68.56508353 -171.93683346 66.62298691 -169 65 C-165.93144338 65.07484284 -164.50479739 65.57933551 -162.1484375 67.54296875 C-158.19267214 70.22569689 -153.61338599 69.22206431 -149 69 C-147.83597656 68.9690625 -146.67195312 68.938125 -145.47265625 68.90625 C-129.118935 68.21983987 -112.68336467 64.14419344 -101 52 C-92.99349429 43.11416708 -88.36874216 34.11754175 -85.08984375 22.6640625 C-83.84216753 19.61418729 -82.57373684 18.04287399 -80 16 C-75.38438519 15.3299914 -72.37564609 15.29072133 -68.5 18 C-65.84766994 21.18279607 -65.34319132 22.75438611 -65.65625 26.86328125 C-66.21310049 30.32461326 -67.036552 33.62793201 -68 37 C-53.52956666 37.54720126 -40.34176424 36.38803092 -28 28 C-27.44699219 27.443125 -26.89398437 26.88625 -26.32421875 26.3125 C-25 25 -25 25 -23 25 C-22.57460938 24.12021484 -22.57460938 24.12021484 -22.140625 23.22265625 C-21.10461769 21.20386119 -19.98275638 19.34005401 -18.75 17.4375 C-16.05032099 13.19628829 -13.73172934 8.78751801 -11.4296875 4.3203125 C-8.48965294 -0.451219 -5.22992861 -0.5410271 0 0 Z " fill="#7552EE" transform="translate(816,664)"/>
<path d="M0 0 C2.85614672 1.71125209 3.3671389 2.90319446 5 6 C5.62885479 9.98274701 5.5818757 12.03020716 3.5 15.5 C1 18 1 18 -0.87109375 19.51171875 C-6.87834635 24.38338485 -11.26427314 29.15468385 -12.26611328 37.11425781 C-13.24682857 50.15585893 -11.94838629 62.51116613 -3.1875 72.8203125 C4.5300879 80.64048085 4.5300879 80.64048085 14.4296875 84.40234375 C18.34221089 83.96143575 21.45909858 82.92518846 25.125 81.5 C31.95198511 79.03759833 38.73644837 77.53312676 46 79 C50.3549613 81.99289065 52.35405562 84.27267928 53.5625 89.375 C52.84194687 92.73758126 51.30076539 94.40788102 48.6484375 96.53515625 C45.13256156 98.4797779 41.55601478 99.41327107 37.6875 100.4375 C24.35453692 103.98540707 15.73373647 111.43766036 8.8125 123.3125 C8.36519531 124.13363281 7.91789063 124.95476562 7.45703125 125.80078125 C5.86496215 128.20382388 4.45681016 129.50802908 2 131 C-1.4375 131.5 -1.4375 131.5 -5 131 C-9.03410428 127.66747907 -10.84554599 125.61474649 -11.34375 120.40625 C-11.2790371 115.29393124 -9.12867088 111.76270954 -6.5 107.5 C-5.85611328 106.40945313 -5.85611328 106.40945313 -5.19921875 105.296875 C-4.14829914 103.52198855 -3.0762761 101.75962601 -2 100 C-2.89074219 99.74863281 -3.78148437 99.49726563 -4.69921875 99.23828125 C-15.76011217 95.08880999 -23.30349413 83.09802872 -28.56640625 72.9921875 C-31.87303295 65.5892919 -33.55298544 57.95269791 -35 50 C-45.76579372 49.39252575 -53.82110276 50.36592432 -62.375 57.25 C-67.69556948 62.24811072 -70.64848973 68.38980757 -71.203125 75.6640625 C-71.3013472 81.86843134 -70.64543617 86.8761915 -68.6875 92.75 C-67.6842942 96.03321899 -67.46799251 98.60845228 -68 102 C-72.42122747 107.3520122 -75.28860693 108.08858966 -82 108.8125 C-90.95301089 109.91142939 -99.78269325 111.97174019 -106 119 C-107.87364578 121.51973053 -109.65510581 124.07599914 -111.38671875 126.6953125 C-112.82515047 128.75021496 -114.04404573 130.43722738 -116 132 C-120.77261703 132.61582155 -122.87270797 132.68107227 -127 130.1875 C-129.98085106 125.43676862 -130.01938308 121.45626627 -129 116 C-124.2020695 104.13602641 -114.22095214 96.4239385 -103 91 C-99.70007577 89.78514539 -96.41110957 88.83678382 -93 88 C-92.96132813 86.02580078 -92.96132813 86.02580078 -92.921875 84.01171875 C-92.39738587 65.58267917 -92.39738587 65.58267917 -88 57 C-87.38318359 55.74896484 -87.38318359 55.74896484 -86.75390625 54.47265625 C-80.37722549 42.74895706 -70.31481375 33.76106721 -57.6237793 29.63989258 C-52.78342789 28.45941793 -47.89903722 28.42206076 -42.9375 28.3125 C-41.88111328 28.27833984 -40.82472656 28.24417969 -39.73632812 28.20898438 C-37.15765843 28.12730705 -34.57929438 28.05790057 -32 28 C-31.73316406 27.13117188 -31.46632813 26.26234375 -31.19140625 25.3671875 C-26.33305301 11.63636622 -15.96503002 -2.63364729 0 0 Z " fill="#7652EE" transform="translate(360,249)"/>
<path d="M0 0 C3.10829605 2.65029565 5.52187179 5.76616537 8 9 C8.59941406 9.77730469 9.19882813 10.55460938 9.81640625 11.35546875 C10.39261719 12.10441406 10.96882813 12.85335937 11.5625 13.625 C19.78463415 24.27303409 28.80403987 30.78203779 42 34 C42.5760498 34.17418457 43.15209961 34.34836914 43.74560547 34.52783203 C46.63525899 35.13305078 49.34454591 35.11158233 52.296875 35.09765625 C53.50214844 35.09443359 54.70742188 35.09121094 55.94921875 35.08789062 C57.83060547 35.07532227 57.83060547 35.07532227 59.75 35.0625 C61.01972656 35.05798828 62.28945313 35.05347656 63.59765625 35.04882812 C66.73181836 35.03704556 69.86588541 35.02059416 73 35 C72.97381592 34.23856689 72.94763184 33.47713379 72.9206543 32.69262695 C72.81652985 29.23279565 72.75162271 25.77329415 72.6875 22.3125 C72.64560547 21.11431641 72.60371094 19.91613281 72.56054688 18.68164062 C72.43928234 9.97484734 72.43928234 9.97484734 74.10009766 7.08740234 C75.45703125 5.73046875 75.45703125 5.73046875 78 4 C78.33 3.67 78.66 3.34 79 3 C82.93657505 2.62148317 85.23954674 2.52344929 88.63671875 4.65234375 C91.43873257 7.43583186 91.87611903 9.02550671 92.5625 12.875 C92.91634766 14.6075 92.91634766 14.6075 93.27734375 16.375 C93.63505859 18.169375 93.63505859 18.169375 94 20 C97.94687504 37.99611416 107.21907123 53.08354749 122.75 63.4375 C134.63763364 69.98513313 150.49744764 72.65334931 164 72 C164.66 71.67 165.32 71.34 166 71 C170.41308343 70.95740267 173.96303299 71.19635056 177.5 73.9375 C179.95306111 77.31045902 180.20514169 79.82545563 180.54394531 83.96728516 C181.72164249 97.72848128 185.71922658 108.0768054 195.125 118.3125 C198.1605809 120.094254 200.57974557 120.67651429 204 121.4375 C207.70299894 122.30396527 210.00333909 123.00211904 213.25 125.0625 C215.8022136 129.34657284 215.88649516 133.1362563 215 138 C213.20353146 140.93423195 212.0558929 142.47205355 209 144 C198.17673781 145.35775691 189.32107877 141.78346759 180.75 135.3125 C170.38915158 126.41279687 162.65630731 114.54716729 160 101 C159.92095082 98.33035095 159.97254224 95.67163969 160 93 C158.42025391 92.94392578 158.42025391 92.94392578 156.80859375 92.88671875 C131.70057317 91.82503163 111.70565717 85.30210549 93.875 67.078125 C89 61.675 89 61.675 89 59 C87.515 58.505 87.515 58.505 86 58 C84.3125 55.9375 84.3125 55.9375 83 54 C80.93728361 54.3110685 78.87483534 54.62391516 76.8125 54.9375 C75.66394531 55.11152344 74.51539063 55.28554688 73.33203125 55.46484375 C71.39755718 55.77553888 69.46672046 56.11926379 67.5546875 56.546875 C49.10574752 59.81916405 29.65413079 54.86909624 14 45 C10.09812463 42.22384906 6.51462792 39.24881572 3 36 C2.34644531 35.41476562 1.69289062 34.82953125 1.01953125 34.2265625 C-5.04009693 28.52810421 -13.18739786 19.45604292 -14.4375 11.0625 C-13.8806713 7.16469912 -12.43417323 5.06010349 -10 2 C-6.11544659 -0.58970227 -4.60866015 -0.83106986 0 0 Z " fill="#7653EE" transform="translate(216,672)"/>
<path d="M0 0 C13.69595707 6.49481235 21.63973698 16.44703269 27.10546875 30.47265625 C27.78609375 32.20515625 27.78609375 32.20515625 28.48046875 33.97265625 C31.11233347 48.71109871 26.9036779 59.97197092 18.65625 72.1328125 C17.28780997 74.19753688 16.15530998 76.23333973 15.10546875 78.47265625 C16.01167969 78.88515625 16.91789063 79.29765625 17.8515625 79.72265625 C31.77323252 86.23066841 39.07556938 93.02333575 44.43017578 107.56616211 C46.83414365 114.35306922 47.41386973 120.14563701 47.35546875 127.28515625 C47.36707031 128.68604492 47.36707031 128.68604492 47.37890625 130.11523438 C47.33612279 145.52797566 47.33612279 145.52797566 43.80200195 150.19335938 C41.75461938 151.7372196 40.31695284 152.05083957 37.7890625 152.4296875 C36.94690186 152.56930908 36.10474121 152.70893066 35.23706055 152.8527832 C34.34801025 152.99546631 33.45895996 153.13814941 32.54296875 153.28515625 C24.7282471 154.70063988 18.36119999 156.31942022 12.10546875 161.47265625 C11.44417969 162.00890625 10.78289063 162.54515625 10.1015625 163.09765625 C4.19743989 168.42245994 1.89278019 174.74155576 -0.26953125 182.22265625 C-1.79515152 186.9314626 -3.65755635 188.89724013 -7.89453125 191.47265625 C-11.89569642 192.20756414 -13.31232099 191.86079643 -16.70703125 189.59765625 C-20.1282898 186.27414794 -20.10223644 184.14981413 -20.20703125 179.47265625 C-20.10439861 169.11816322 -15.98273897 161.61989286 -9.89453125 153.47265625 C-9.41628906 152.80492187 -8.93804688 152.1371875 -8.4453125 151.44921875 C-0.18690761 140.92339287 12.49887017 135.01603636 25.10546875 131.47265625 C25.76546875 131.47265625 26.42546875 131.47265625 27.10546875 131.47265625 C26.10490416 121.10859911 24.79708087 111.44389614 16.79296875 104.09765625 C9.72822285 98.65255733 2.14144996 95.47987619 -6.89453125 96.47265625 C-7.67054688 96.79878906 -8.4465625 97.12492187 -9.24609375 97.4609375 C-14.54412343 99.48481609 -21.60755917 99.67354624 -26.96875 97.71484375 C-31.30609243 94.93981862 -33.48002687 91.89751507 -34.89453125 87.03515625 C-34.89453125 83.47265625 -34.89453125 83.47265625 -32.83203125 80.72265625 C-28.20072497 77.17527272 -24.09779052 75.50359474 -18.45703125 74.22265625 C-12.57166404 72.66968385 -9.59202388 70.21257451 -5.89453125 65.47265625 C-5.28738281 64.704375 -4.68023438 63.93609375 -4.0546875 63.14453125 C1.28501779 55.9647161 6.08008777 47.95248217 5.62109375 38.70703125 C4.32797386 33.10351174 0.88477337 28.83601953 -3.6015625 25.3984375 C-7.91542044 22.87562378 -12.34406292 21.35577646 -17.06054688 19.76171875 C-21.30960447 18.26062718 -24.62984623 16.71270214 -27.89453125 13.47265625 C-29.06535098 10.80728783 -29.1781887 8.35928793 -28.89453125 5.47265625 C-22.66924023 -7.21736007 -11.08812178 -4.66663038 0 0 Z " fill="#7551EE" transform="translate(592.89453125,202.52734375)"/>
<path d="M0 0 C13.54116321 5.94268804 22.4947361 16.66258474 28.25 29.9375 C31.71172992 39.18320366 32.30790269 48.19843117 32 58 C32.58265625 57.9685791 33.1653125 57.9371582 33.765625 57.90478516 C47.29643806 57.27451733 57.75336349 58.1575679 70 64 C71.37671875 64.556875 71.37671875 64.556875 72.78125 65.125 C87.71967017 71.55419349 98.67046216 86.49480911 105 101 C106.08014702 104.79531112 106.4098458 108.03815723 106 112 C104.22072888 114.97430396 102.14588246 117.42705877 99 119 C91.07674944 119.44018059 91.07674944 119.44018059 88 117 C85.83268355 113.44613948 83.91119249 109.89519209 82.2109375 106.09765625 C76.63941193 93.70453477 70.10886543 87.35585321 57.4453125 81.91015625 C52.21240911 79.9624462 47.53389842 79.81692005 42 79.8125 C41.19304688 79.80025391 40.38609375 79.78800781 39.5546875 79.77539062 C38.77351562 79.77345703 37.99234375 79.77152344 37.1875 79.76953125 C36.12595703 79.76336792 36.12595703 79.76336792 35.04296875 79.75708008 C32.62305994 80.04482019 31.05631027 80.69973889 29 82 C27.60788795 84.68367607 27.60788795 84.68367607 26.5625 87.8125 C23.12710854 96.43202136 23.12710854 96.43202136 19 99 C15.49232055 99.73632279 12.50158315 99.78642113 9 99 C5.57329799 96.39570647 4.3965793 94.98289649 3.56640625 90.83203125 C3.22731927 84.53323364 4.99756096 78.98559318 7.02734375 73.078125 C10.54252041 61.95379083 11.27749985 45.63588093 6 35 C2.36930697 28.29914198 -3.24661351 24.32696876 -9.390625 20.078125 C-11.91735977 18.06581527 -12.98565767 17.00743603 -14 14 C-14.57183298 8.85350318 -14.57183298 8.85350318 -14 6 C-10.00271613 1.055991 -6.39365523 -1.2054581 0 0 Z " fill="#7652EE" transform="translate(679,257)"/>
<path d="M0 0 C1.03125 0.01546875 2.0625 0.0309375 3.125 0.046875 C8.13521695 0.40085772 8.13521695 0.40085772 10 1.25 C12.0828051 5.28282769 12.26776865 8.7766591 12.30639648 13.27172852 C12.31472 13.95853699 12.32304352 14.64534546 12.33161926 15.35296631 C12.35561567 17.61167137 12.36447623 19.87008746 12.37109375 22.12890625 C12.38006439 23.70401595 12.38918631 25.2791248 12.39845276 26.85423279 C12.41491453 30.15015736 12.42263835 33.44598063 12.42553711 36.74194336 C12.43093384 40.96463017 12.46867769 45.18636622 12.51428127 49.40878391 C12.54401599 52.65931182 12.55125978 55.90960905 12.55226326 59.16026115 C12.5564688 60.71721717 12.56891668 62.27417367 12.58978081 63.83099556 C12.61663829 66.00726788 12.61189085 68.18131266 12.59936523 70.35766602 C12.60443588 71.59500992 12.60950653 72.83235382 12.61473083 74.10719299 C12 77.25 12 77.25 9.63465881 79.65196228 C6.61165554 81.48554818 4.94208266 81.73223341 1.4375 81.625 C0.50808594 81.61210938 -0.42132813 81.59921875 -1.37890625 81.5859375 C-4.1058059 81.23643918 -5.73869896 80.80371669 -8 79.25 C-10.37747424 75.68803544 -10.26511607 72.43781713 -10.29052734 68.23413086 C-10.29724457 67.53610855 -10.30396179 66.83808624 -10.31088257 66.11891174 C-10.32984179 63.8174829 -10.33378506 61.51634576 -10.3359375 59.21484375 C-10.34236475 57.61348857 -10.34909306 56.01213457 -10.35610962 54.41078186 C-10.36807562 51.05759964 -10.37179093 47.70452042 -10.37060547 44.35131836 C-10.37040183 40.05129045 -10.3977531 35.75192009 -10.43214989 31.4520483 C-10.4543627 28.14666192 -10.45844482 24.84143553 -10.45738602 21.53598213 C-10.45974858 19.95031013 -10.46860887 18.36463414 -10.48405075 16.77903557 C-10.50360704 14.5643756 -10.49791629 12.35115685 -10.48583984 10.13647461 C-10.48868988 8.876129 -10.49153992 7.61578339 -10.49447632 6.31724548 C-10 3.25 -10 3.25 -8.14932251 1.34010315 C-5.30616861 -0.10190055 -3.17441589 -0.0793604 0 0 Z " fill="#7350EE" transform="translate(511,467.75)"/>
<path d="M0 0 C3.58111921 2.50622651 5.98755762 5.14153018 8.5 8.6875 C17.73130997 20.34719562 28.03369876 24.13284398 42 27 C49.75562924 29.01958667 49.75562924 29.01958667 53.0625 31.625 C54.56135697 35.42210432 54.7858624 38.99210177 54 43 C51.81840855 45.75569447 50.12822506 47.43588747 47 49 C31.99663416 50.5591232 16.21306743 45.47884517 4.390625 36.26171875 C-3.46624944 29.8639929 -11.73087143 22.90034671 -15 13 C-15.33897425 8.41081022 -14.51148566 5.6164058 -11.5625 2.0625 C-7.30147118 -1.36710856 -5.36387774 -1.18187137 0 0 Z " fill="#7451EE" transform="translate(277,771)"/>
<path d="M0 0 C3 1.875 3 1.875 5 5 C5.80285638 9.70906145 5.62089874 13.64531184 3.625 18 C0.44203213 21.91749891 0.44203213 21.91749891 -1.98828125 22.37109375 C-6.51421015 22.500406 -8.35575702 22.52344742 -12 19.5625 C-12.66 18.716875 -13.32 17.87125 -14 17 C-14.33 16.67 -14.66 16.34 -15 16 C-15.55720584 12.21896039 -15.84003776 8.52021759 -13.953125 5.10546875 C-9.89969052 0.20558177 -6.26131821 -1.00564193 0 0 Z " fill="#7855EE" transform="translate(157,429)"/>
<path d="M0 0 C2.75329021 1.79562405 4.52627461 3.05254922 6 6 C6.47210258 10.72102578 6.73364092 13.65955345 3.6875 17.4375 C0.00612694 20.94764641 -2.99628282 21.43999927 -8.05859375 21.328125 C-10 21 -10 21 -12.5 19.125 C-14.61998669 14.70836106 -14.94001095 10.81064426 -14 6 C-9.8151203 0.60370776 -6.73904277 -0.57110532 0 0 Z " fill="#7653EE" transform="translate(876,430)"/>
<path d="M0 0 C-2.3535311 0.79359736 -4.70778883 1.58491783 -7.0625 2.375 C-7.71927734 2.59671875 -8.37605469 2.8184375 -9.05273438 3.046875 C-12.27169339 4.12514699 -15.46865973 5.12803842 -18.74609375 6.0234375 C-25.9515732 8.18594634 -31.50946007 13.00704025 -37 18 C-34.23550141 11.51573105 -28.00744763 6.68320968 -21.75 3.6875 C-6.53146768 -2.32475968 -6.53146768 -2.32475968 0 0 Z " fill="#AC98F4" transform="translate(225,410)"/>
<path d="M0 0 C6.01453478 1.55548313 8.98134415 5.0792922 12.625 9.9375 C12.295 10.5975 11.965 11.2575 11.625 11.9375 C11.24730469 11.37160156 10.86960937 10.80570313 10.48046875 10.22265625 C6.95251017 5.52141655 6.95251017 5.52141655 1.7109375 3.18359375 C-1.00539321 2.96249706 -3.65168026 2.85870594 -6.375 2.9375 C-3.796875 -0.0703125 -3.796875 -0.0703125 0 0 Z " fill="#6742EE" transform="translate(273.375,770.0625)"/>
<path d="M0 0 C3.59826806 0.07209645 4.16348191 0.41848568 7.1875 2.8125 C9.1875 5.4375 9.1875 5.4375 9.1875 7.4375 C6.69388429 6.23368552 4.50606917 4.98321278 2.1875 3.4375 C0.1382906 2.98610541 0.1382906 2.98610541 -2 2.8125 C-3.258125 2.68875 -4.51625 2.565 -5.8125 2.4375 C-3.8125 0.4375 -3.8125 0.4375 0 0 Z " fill="#AD9AF4" transform="translate(152.8125,428.5625)"/>
<path d="M0 0 C0 0.33 0 0.66 0 1 C-1.11375 1.185625 -1.11375 1.185625 -2.25 1.375 C-4.96572378 1.87755542 -4.96572378 1.87755542 -7.125 3.0625 C-9 4 -9 4 -12 4 C-12 3.34 -12 2.68 -12 2 C-15.63 2 -19.26 2 -23 2 C-23 1.67 -23 1.34 -23 1 C-15.30881404 0.24833087 -7.72772107 -0.13690844 0 0 Z " fill="#9F88F2" transform="translate(280,403)"/>
<path d="M0 0 C5.32732146 3.9320706 8.5475182 8.38053494 12 14 C11.67 14.66 11.34 15.32 11 16 C10.54109375 15.40832031 10.0821875 14.81664062 9.609375 14.20703125 C8.99578125 13.41683594 8.3821875 12.62664062 7.75 11.8125 C7.11449219 10.99265625 6.47898437 10.1728125 5.82421875 9.328125 C4.4315196 7.5507188 3.0044277 5.80020774 1.5625 4.0625 C0 2 0 2 0 0 Z " fill="#B9AEF3" transform="translate(487,319)"/>
<path d="M0 0 C0 0.33 0 0.66 0 1 C-7.72888819 2.95403042 -15.05042008 3.22428282 -23 3 C-23 2.67 -23 2.34 -23 2 C-7.25512528 -0.29612756 -7.25512528 -0.29612756 0 0 Z " fill="#A791F2" transform="translate(255,405)"/>
<path d="M0 0 C0.66 0.33 1.32 0.66 2 1 C-1.75 6.75 -1.75 6.75 -4 9 C-5.32 8.67 -6.64 8.34 -8 8 C-5.36 5.36 -2.72 2.72 0 0 Z " fill="#653FEE" transform="translate(245,347)"/>
<path d="M0 0 C0.99 0.33 1.98 0.66 3 1 C1.92643323 2.15498897 0.84070212 3.29867867 -0.25 4.4375 C-0.85328125 5.07558594 -1.4565625 5.71367187 -2.078125 6.37109375 C-4.10048016 8.08516306 -5.41270605 8.59358878 -8 9 C-7.04270084 7.87411986 -6.08412105 6.7493285 -5.125 5.625 C-4.59132813 4.99851562 -4.05765625 4.37203125 -3.5078125 3.7265625 C-2.38567993 2.44163349 -1.20628025 1.20628025 0 0 Z " fill="#6841EF" transform="translate(286,288)"/>
<path d="M0 0 C-1.33333333 0.66666667 -2.66666667 1.33333333 -4 2 C-4.8971875 2.556875 -4.8971875 2.556875 -5.8125 3.125 C-8.89997177 4.35998871 -11.71225123 4.12645188 -15 4 C-14.67 3.34 -14.34 2.68 -14 2 C-9.17574056 0.52819204 -5.07522852 -0.25376143 0 0 Z " fill="#6742ED" transform="translate(768,633)"/>
<path d="M0 0 C1.3609623 2.7219246 0.70366248 4.1831957 0.0625 7.125 C-0.13214844 8.03507813 -0.32679688 8.94515625 -0.52734375 9.8828125 C-0.68332031 10.58148437 -0.83929688 11.28015625 -1 12 C-1.66 11.67 -2.32 11.34 -3 11 C-3.32613618 6.32538149 -2.70582788 3.83325617 0 0 Z " fill="#9074F1" transform="translate(205,675)"/>
<path d="M0 0 C3.7952131 1.49097658 5.61042731 3.75700849 8 7 C4.0521912 7 2.81491174 5.66275435 0 3 C0 2.01 0 1.02 0 0 Z " fill="#7F60F0" transform="translate(322,722)"/>
<path d="M0 0 C0.66 0 1.32 0 2 0 C1.34 3.3 0.68 6.6 0 10 C-0.66 9.67 -1.32 9.34 -2 9 C-1.125 1.125 -1.125 1.125 0 0 Z " fill="#8060F0" transform="translate(575,370)"/>
<path d="M0 0 C0.66 0.33 1.32 0.66 2 1 C-1.0657052 5.65987191 -3.58657319 6.85485202 -9 8 C-6.17493137 5.0702992 -3.21203935 2.49825283 0 0 Z " fill="#D7CFF5" transform="translate(829,623)"/>
<path d="M0 0 C-0.33 0.66 -0.66 1.32 -1 2 C-5.34263862 2.16702456 -8.20960634 2.12999997 -12 0 C-10.56359829 -0.19573608 -9.12580496 -0.38127816 -7.6875 -0.5625 C-6.88699219 -0.66691406 -6.08648437 -0.77132813 -5.26171875 -0.87890625 C-3 -1 -3 -1 0 0 Z " fill="#7E5EF0" transform="translate(283,404)"/>
<path d="M0 0 C0.66 0.99 1.32 1.98 2 3 C1.125 6.6875 1.125 6.6875 0 10 C-0.99 10 -1.98 10 -3 10 C-2.01 6.7 -1.02 3.4 0 0 Z " fill="#876BF0" transform="translate(856,546)"/>
<path d="M0 0 C0 0.66 0 1.32 0 2 C-1.75 3.5078125 -1.75 3.5078125 -4 5.125 C-4.7425 5.66382813 -5.485 6.20265625 -6.25 6.7578125 C-6.8275 7.16773438 -7.405 7.57765625 -8 8 C-7.40137646 4.79837298 -7.08735442 4.08063485 -4.5625 1.75 C-2 0 -2 0 0 0 Z " fill="#7E5EEF" transform="translate(220,314)"/>
</svg>
