<?xml version="1.0" encoding="UTF-8"?>
<svg version="1.1" xmlns="http://www.w3.org/2000/svg" width="1024" height="1024">
<path d="M0 0 C337.92 0 675.84 0 1024 0 C1024 337.92 1024 675.84 1024 1024 C686.08 1024 348.16 1024 0 1024 C0 686.08 0 348.16 0 0 Z " fill="#A473FE" transform="translate(0,0)"/>
<path d="M0 0 C0.66 0.66 1.32 1.32 2 2 C5.14964668 2.34839284 5.14964668 2.34839284 7.1875 -0.125 C7.84492187 -0.81335938 7.84492187 -0.81335938 8.515625 -1.515625 C21.58733387 -14.58733387 42.81653866 -22.14231368 61.10571289 -22.3293457 C62.06082764 -22.32378662 63.01594238 -22.31822754 64 -22.3125 C65.00603271 -22.30758545 66.01206543 -22.3026709 67.04858398 -22.29760742 C89.92992926 -21.94306929 110.55019207 -15.04769829 128 0 C129.25296875 1.06927734 129.25296875 1.06927734 130.53125 2.16015625 C137.63550886 8.37638275 144.66657784 15.15869908 150 23 C150 23.66 150 24.32 150 25 C150.845625 24.79503906 151.69125 24.59007812 152.5625 24.37890625 C175.07034261 19.03329363 196.61120471 20.01798806 217.1875 31.8125 C239.33025008 45.85773953 253.26987103 65.7733043 259.57470703 91.08349609 C260.45604917 95.05510104 260.80677859 98.94235033 261 103 C261.70769531 103.11988281 262.41539062 103.23976563 263.14453125 103.36328125 C281.66832298 107.49375738 300.24643036 121.5716897 310.6875 137.1875 C318.17358673 149.60047637 322.43957338 161.59870752 321.95703125 176.046875 C321.93347937 177.96350322 321.91340654 179.88017678 321.89648438 181.796875 C321.86391941 184.77228404 321.81282623 187.74125446 321.7019043 190.71484375 C320.95947248 203.13963517 320.95947248 203.13963517 325.83789062 214.11352539 C328.50400288 216.94406002 331.41166646 219.37074886 334.48677063 221.74176025 C346.51559197 231.74364193 353.37136494 251.96176229 355 267 C356.18274412 288.93210058 354.46481695 309.23830571 341.76928711 327.79931641 C340.39343434 329.78298206 340.39343434 329.78298206 339 333 C339.70765589 336.11037307 339.70765589 336.11037307 341.5625 339 C351.6266561 358.72663856 350.32124964 384.67182808 343.93359375 405.47265625 C336.23312227 427.20170945 320.00475855 441.67790997 300 452 C291.23595506 456 291.23595506 456 288 456 C288.04640625 456.7528125 288.0928125 457.505625 288.140625 458.28125 C288.75251106 476.28818266 282.83594863 493.07630673 270.625 506.375 C268.78553484 508.29203297 266.90363862 510.14441958 265 512 C263.76056641 513.23556641 263.76056641 513.23556641 262.49609375 514.49609375 C252.73364026 523.78844515 241.76903566 528.99373382 229 533 C227.97390625 533.36867188 226.9478125 533.73734375 225.890625 534.1171875 C220.2742071 535.39159558 214.80422044 535.33791111 209.0625 535.3125 C207.86713623 535.31121094 206.67177246 535.30992187 205.44018555 535.30859375 C196.31882787 535.20995115 187.83610221 534.27330042 179 532 C178.61070312 532.67804687 178.22140625 533.35609375 177.8203125 534.0546875 C167.32890601 551.50813331 151.53652645 562.27040564 131.9375 567.25 C125.97486447 568.68167098 120.13275021 569.76562738 114 570 C113.06671875 570.0515625 112.1334375 570.103125 111.171875 570.15625 C88.2885814 570.84619855 66.20688939 563.97272906 48 550 C44.72765988 551.55935456 41.70715889 553.4083169 38.625 555.3125 C19.45223072 566.48110346 -3.44868168 568.98493878 -24.91699219 563.51123047 C-32.53108691 561.37798761 -39.375264 558.65200494 -45.8515625 554.0390625 C-48.74537505 552.63950952 -49.98212239 552.95447205 -53 554 C-54.93199875 555.17150141 -56.82456783 556.40901714 -58.6875 557.6875 C-63.94291119 561.10779843 -69.23516596 563.42118043 -75.1875 565.375 C-75.91090576 565.61307373 -76.63431152 565.85114746 -77.37963867 566.09643555 C-88.00949279 569.42298847 -98.04898195 570.41096884 -109.1875 570.375 C-109.87764191 570.3737915 -110.56778381 570.37258301 -111.27883911 570.37133789 C-132.13515158 570.27203221 -150.42860387 564.26895593 -166 550 C-166.63164062 549.43667969 -167.26328125 548.87335937 -167.9140625 548.29296875 C-172.73157274 543.76196242 -176.36088045 538.49739337 -180 533 C-180.72058594 533.144375 -181.44117188 533.28875 -182.18359375 533.4375 C-206.38174529 537.62061383 -230.87484072 536.19428076 -252.10546875 523.08203125 C-254.83604173 521.15252905 -257.42656815 519.13387051 -260 517 C-261.27617187 515.96746094 -261.27617187 515.96746094 -262.578125 514.9140625 C-277.70132496 502.06398155 -287.07967961 484.87895182 -289.46484375 465.15625 C-289.70715979 462.10240405 -289.89674911 459.06138902 -290 456 C-291.43279297 455.47212891 -291.43279297 455.47212891 -292.89453125 454.93359375 C-314.3907592 446.81422359 -331.7964197 433.2269926 -341.72265625 412.0546875 C-350.56073571 390.91897453 -352.18855289 365.88911566 -345 344 C-343.79139132 341.18904326 -342.51615109 338.57232623 -340.953125 335.9453125 C-339.70667589 333.76237385 -339.70667589 333.76237385 -340 330 C-341.31002086 327.49349341 -342.66525607 325.10319783 -344.125 322.6875 C-356.18020283 302.00140881 -360.54182457 280.89693679 -354.83422852 257.32958984 C-350.40824489 240.69444566 -340.84661427 221.4982573 -325.38574219 212.47412109 C-322.28648082 209.26004877 -322.42711161 207.40138989 -322.40930176 203.07060242 C-322.42891968 202.15398331 -322.4485376 201.2373642 -322.46875 200.29296875 C-322.46548706 199.33538162 -322.46222412 198.37779449 -322.4588623 197.39118958 C-322.4457595 193.30632888 -322.48989042 189.22257139 -322.52978516 185.13793945 C-322.61829702 172.41178581 -322.16371904 161.76743154 -317 150 C-316.67547852 149.22116455 -316.35095703 148.4423291 -316.01660156 147.63989258 C-308.20103199 129.95815545 -293.2229559 116.40789691 -276 108 C-274.67670955 107.57382751 -273.34530238 107.17223308 -272.0078125 106.79296875 C-267.9021141 105.59077476 -264.57549554 104.4152653 -261 102 C-259.0929618 97.42840564 -258.76907621 93.07847961 -258.31054688 88.1875 C-255.63331923 69.32904109 -241.19958988 50.01528431 -226.39697266 38.78369141 C-213.30124278 29.47176098 -198.26325755 21.99202865 -182 21 C-181.18917969 20.94714844 -180.37835938 20.89429688 -179.54296875 20.83984375 C-174.5373814 20.67882486 -170.03297342 20.92754217 -165.16796875 22.12890625 C-156.58939905 24.5622916 -156.58939905 24.5622916 -148.203125 23.04345703 C-144.88189656 20.14052725 -142.584502 16.50565445 -140.22998047 12.81005859 C-127.55142227 -5.84790696 -105.12350578 -15.79428627 -84 -21 C-83.04867188 -21.24621094 -82.09734375 -21.49242187 -81.1171875 -21.74609375 C-52.01048668 -28.19941427 -23.00184605 -17.39878754 0 0 Z " fill="#F7E7FE" transform="translate(511,232)"/>
<path d="M0 0 C3.68106647 0.00572324 7.36206105 0.00227742 11.04312515 -0.00343323 C34.61767282 -0.03454888 58.22862638 0.12072912 81.71411133 2.38037109 C82.37101959 2.44317261 83.02792786 2.50597412 83.70474243 2.57067871 C100.81006805 4.23744961 117.46803762 7.21449241 133.83911133 12.50537109 C135.03443481 12.88870605 135.03443481 12.88870605 136.25390625 13.27978516 C141.12047227 14.95975872 145.1993607 17.10850682 149.59301758 19.79833984 C157.72255268 24.26715158 165.23575158 24.14298231 174.27661133 24.06787109 C175.91245063 24.07640505 177.54827812 24.08758469 179.18408203 24.10131836 C182.4495395 24.12424425 185.71422187 24.12806257 188.97973633 24.11865234 C193.13703257 24.11520159 197.27832517 24.22921853 201.43286133 24.38037109 C203.71409527 24.44345466 205.99534428 24.50599651 208.27661133 24.56787109 C209.79484497 24.63832642 209.79484497 24.63832642 211.34375 24.71020508 C217.94862746 24.80476029 221.8227387 23.30516497 227.29541016 19.64282227 C235.22808029 14.41207277 245.51043912 12.02419801 254.58911133 9.44287109 C255.25104492 9.25265381 255.91297852 9.06243652 256.5949707 8.86645508 C268.96521483 5.49635652 281.65124628 3.64441553 294.40161133 2.50537109 C295.08764435 2.44344574 295.77367737 2.38152039 296.48049927 2.31771851 C316.14171027 0.5800815 335.86235343 0.3171245 355.58911133 0.13037109 C356.93827637 0.1174704 356.93827637 0.1174704 358.31469727 0.10430908 C388.89173434 -0.16929089 419.61553791 -0.39289587 450.08911133 2.44287109 C451.28117188 2.54833252 452.47323242 2.65379395 453.70141602 2.76245117 C464.06139949 3.84180106 475.59370243 5.64079719 482.58911133 14.13037109 C484.27407406 19.18525928 483.81587444 24.46316945 483.83911133 29.75537109 C483.87004883 31.48207031 483.87004883 31.48207031 483.90161133 33.24365234 C483.97080661 48.41471836 483.97080661 48.41471836 478.94262695 53.93945312 C476.25384082 56.36582256 473.42496533 58.23138401 470.33911133 60.13037109 C466.27374045 63.08700446 464.94172617 66.50944282 463.88476562 71.36816406 C463.72919189 72.52461426 463.57361816 73.68106445 463.41333008 74.87255859 C463.22851074 76.17443115 463.04369141 77.47630371 462.85327148 78.81762695 C462.75975403 79.50082001 462.66623657 80.18401306 462.56988525 80.88790894 C457.96949074 114.10314027 450.05690405 144.94544302 425.58911133 169.13037109 C424.80020508 169.92958984 424.01129883 170.72880859 423.19848633 171.55224609 C404.37795714 189.62493968 377.21078318 197.25709255 351.53051758 197.29833984 C350.4093882 197.30333244 350.4093882 197.30333244 349.26560974 197.3084259 C347.68993741 197.31345699 346.11425457 197.31583542 344.53857422 197.31567383 C342.18869249 197.31783696 339.8392995 197.33596876 337.48950195 197.35498047 C323.87054961 197.40692196 310.21295775 196.60717575 297.02661133 192.94287109 C296.24342529 192.72928955 295.46023926 192.51570801 294.65332031 192.2956543 C267.68026332 184.60581157 244.71054101 166.67569155 230.72290039 142.23681641 C220.12704571 122.55097786 214.38418866 100.71261461 209.54150391 79.02587891 C209.31358154 78.02266602 209.08565918 77.01945312 208.85083008 75.98583984 C208.55631958 74.65008911 208.55631958 74.65008911 208.25585938 73.28735352 C207.71596448 70.94606291 207.71596448 70.94606291 205.58911133 69.13037109 C193.70220462 65.84982785 180.46714031 66.0001611 168.58911133 69.13037109 C168.38157227 70.03271484 168.1740332 70.93505859 167.96020508 71.86474609 C167.08428167 75.64736504 166.18833722 79.42505464 165.28686523 83.20166016 C164.79145851 85.281051 164.29927762 87.36121155 163.80932617 89.44189453 C157.28152733 117.04450263 157.28152733 117.04450263 151.58911133 129.13037109 C151.14680176 130.09475098 151.14680176 130.09475098 150.69555664 131.07861328 C137.80754153 159.03158285 117.91227398 178.77122967 88.88989258 189.49755859 C78.68600467 193.01777801 68.28138772 194.8176425 57.58911133 196.13037109 C56.80342773 196.22753418 56.01774414 196.32469727 55.20825195 196.42480469 C44.70343743 197.6052383 34.1422828 197.28927624 23.58911133 197.13037109 C21.67678711 197.10523438 21.67678711 197.10523438 19.72583008 197.07958984 C-9.15660581 195.84529771 -36.09833758 184.55729152 -56.03588867 163.44287109 C-63.40336659 154.89344484 -69.00203305 145.56133053 -73.66088867 135.31787109 C-73.96583252 134.65658203 -74.27077637 133.99529297 -74.58496094 133.31396484 C-81.5983376 117.19247899 -84.20667565 100.04165415 -86.89038086 82.79980469 C-87.35886759 79.81830953 -87.85202869 76.84170855 -88.34838867 73.86474609 C-88.54863647 72.50697052 -88.54863647 72.50697052 -88.75292969 71.12176514 C-89.68841549 65.61444006 -90.87624634 62.75316078 -95.41088867 59.13037109 C-96.1869043 58.49615234 -96.96291992 57.86193359 -97.76245117 57.20849609 C-99.27617824 55.99127227 -100.79704638 54.78287528 -102.32495117 53.58349609 C-108.05886677 46.84023954 -107.87994811 38.39254389 -107.78588867 29.94287109 C-107.79749023 28.8890625 -107.8090918 27.83525391 -107.82104492 26.74951172 C-107.79697441 20.3828626 -107.52685038 15.38356427 -102.90307617 10.55615234 C-87.47282267 -0.06612362 -65.73132124 1.11798363 -47.77416992 0.57568359 C-47.09372431 0.55474766 -46.41327869 0.53381172 -45.71221352 0.51224136 C-30.47546847 0.05208636 -15.24271026 -0.02385979 0 0 Z " fill="#363288" transform="translate(322.410888671875,400.86962890625)"/>
<path d="M0 0 C0.6707959 0.21962402 1.3415918 0.43924805 2.03271484 0.66552734 C10.48869843 3.43839919 17.92830636 6.76824111 25.3515625 11.77734375 C28.81844296 13.37783576 30.35547684 13.07834206 34 12 C36.53710079 10.80803607 38.97631974 9.57891009 41.4375 8.25 C57.5092197 -0.08541984 73.14895634 -3.3567352 91.25 -3.3125 C93.20486328 -3.33666992 93.20486328 -3.33666992 95.19921875 -3.36132812 C128.36853534 -3.37776485 155.03355762 12.45569808 179 34 C179.42265137 34.5470459 179.84530273 35.0940918 180.28076172 35.65771484 C182.51515043 38.43743482 183.98660861 39.83932639 187.58691406 40.41015625 C190.78364454 40.4478264 193.93362904 40.31234675 197.125 40.125 C224.74024433 39.33467121 250.03049332 47.77774212 271 66 C272.03125 66.78375 273.0625 67.5675 274.125 68.375 C289.28037453 82.21251588 299.44313631 101.59715257 304.6875 121.25 C306.31100209 125.8265964 308.40849358 127.18253879 312.6875 129.375 C313.83476563 129.91511719 314.98203125 130.45523438 316.1640625 131.01171875 C338.49475138 141.93243905 355.79401567 162.894915 364 186 C364.36399902 186.98154053 364.36399902 186.98154053 364.73535156 187.98291016 C369.07164803 200.08054884 369.41856858 211.58067184 368.55224609 224.33007812 C368.13807434 234.04965057 370.61794014 238.81243744 377 246 C377.90875647 247.16976136 378.80687894 248.34797623 379.6875 249.5390625 C380.450625 250.55742187 381.21375 251.57578125 382 252.625 C399.30904372 276.54502058 405.58839245 307.45935115 401.27734375 336.5 C399.38819182 347.34200188 396.44537708 357.50447508 390.625 366.9375 C388.67850707 370.60589053 389.00921048 371.10609066 390 375 C390.31548471 376.36910732 390.62768105 377.73897445 390.9375 379.109375 C391.4671294 381.42551549 391.99794204 383.74120146 392.5390625 386.0546875 C398.64573096 412.94225758 395.08715667 442.22326468 381 466 C378.21857069 470.20173363 375.21696679 474.12413639 372 478 C371.30261719 478.86109375 370.60523438 479.7221875 369.88671875 480.609375 C360.295186 491.90178285 348.35587412 499.81448521 335 506 C334.34 506 333.68 506 333 506 C333.061875 507.485 333.061875 507.485 333.125 509 C333.1166001 513.1831491 332.19514612 517.01108403 331 521 C330.77924805 521.73694092 330.55849609 522.47388184 330.33105469 523.2331543 C322.31443145 548.54409633 303.46146838 568.84792833 280.203125 581.03515625 C272.11054903 585.08144424 263.78837189 587.8541276 255 590 C254.18660156 590.22558594 253.37320313 590.45117188 252.53515625 590.68359375 C242.66259139 593.13063974 231.25792378 592.90379475 221.3125 591 C218.46044399 590.65989111 217.49061841 590.61899915 215.19921875 592.3984375 C214.02243759 593.76729098 212.89449169 595.17908147 211.80859375 596.62109375 C197.14918105 615.90312903 170.15119199 624.20753043 147.22265625 627.55078125 C124.0369991 630.33217006 101.17803254 625.88003611 80.85546875 614.19140625 C75.44395564 611.93352458 70.71744304 613.9357258 65.51293945 616.06982422 C64.86929443 616.33553223 64.22564941 616.60124023 63.5625 616.875 C50.50887914 621.90406337 38.29791968 623.26365199 24.375 623.375 C22.57059448 623.39602783 22.57059448 623.39602783 20.72973633 623.41748047 C12.15925709 623.37190835 4.29930359 622.08876596 -4 620 C-5.65153076 619.58596924 -5.65153076 619.58596924 -7.33642578 619.16357422 C-11.38779085 618.13182566 -14.4936066 617.3375956 -18 615 C-22.00517937 615.0976873 -24.86276446 616.3901936 -28.3125 618.25 C-51.82190274 630.42829421 -84.89985822 632.29607312 -109.97949219 624.64599609 C-110.64625977 624.43281738 -111.31302734 624.21963867 -112 624 C-113.04269043 623.67056396 -113.04269043 623.67056396 -114.10644531 623.33447266 C-131.21237205 617.76775813 -150.12044348 607.69106036 -160 592 C-160 591.34 -160 590.68 -160 590 C-160.6919043 590.15936035 -161.38380859 590.3187207 -162.09667969 590.48291016 C-178.27575585 593.36445097 -196.83419332 592.18873725 -212 586 C-213.63195312 585.38898438 -213.63195312 585.38898438 -215.296875 584.765625 C-242.20514222 574.24818045 -261.40530767 555.28218755 -273 529 C-276.8410833 519.30098141 -276.8410833 519.30098141 -277.1875 514.28515625 C-277.39436543 511.41920806 -277.64748373 509.54880129 -279 507 C-281.64393248 505.26340863 -284.30405608 503.94042777 -287.19970703 502.67578125 C-308.69310906 493.27547786 -324.50392523 472.41909398 -333.19091797 451.16552734 C-338.14152063 437.9151213 -339.21698037 424.52030841 -339.25 410.5 C-339.25167175 409.83380646 -339.25334351 409.16761292 -339.25506592 408.48123169 C-339.25838529 386.42430743 -339.25838529 386.42430743 -334.8359375 376.34765625 C-333.83635576 373.54041967 -333.89924676 372.74187626 -335 370 C-335.87891368 368.25038679 -336.76175232 366.50242379 -337.67919922 364.77270508 C-350.62964328 340.30977096 -354.04972572 312.63905183 -346 286 C-341.51443201 272.09323905 -334.40899911 256.34903485 -322.53125 247.23046875 C-315.76055183 241.91557532 -315.76055183 241.91557532 -312.45605469 234.20898438 C-312.00931917 227.73437917 -312.43355293 221.2990009 -312.85888672 214.83251953 C-314.03788216 191.1669398 -299.91399786 167.27004353 -285 150 C-284.40703125 149.30519531 -283.8140625 148.61039063 -283.203125 147.89453125 C-275.51663048 139.58017951 -264.26304322 132.55936589 -254 128 C-253.01 128 -252.02 128 -251 128 C-250.79375 126.824375 -250.5875 125.64875 -250.375 124.4375 C-246.66327181 107.96670617 -238.11260042 91.62119436 -227 79 C-226.33613281 78.19304687 -225.67226563 77.38609375 -224.98828125 76.5546875 C-207.58132493 56.02670574 -180.86021015 42.2905158 -154 40 C-150.84493299 40.0025152 -147.70691 40.11505252 -144.5546875 40.24462891 C-135.31609678 40.91404731 -135.31609678 40.91404731 -126.75 38.17578125 C-124.3226855 35.72280101 -124.3226855 35.72280101 -122.2578125 32.921875 C-119.60220449 29.48520581 -116.67916999 27.06393036 -113.25 24.4375 C-112.35933838 23.74901978 -112.35933838 23.74901978 -111.45068359 23.04663086 C-80.41697272 -0.59072621 -38.24526383 -13.38377055 0 0 Z M-117.3125 55.765625 C-118.91413013 57.81932815 -120.46591854 59.89601445 -122 62 C-122.54301758 61.90912109 -123.08603516 61.81824219 -123.64550781 61.72460938 C-150.08445238 57.36100871 -172.90161704 58.95746169 -195.68359375 74.875 C-213.62636763 88.75895608 -226.25493672 106.56639528 -231 129 C-231.00515625 130.00417969 -231.0103125 131.00835937 -231.015625 132.04296875 C-231.07117268 135.39897426 -231.22010033 137.12196171 -233 140 C-237.33651772 142.76708824 -242.27663021 144.34838672 -247.08203125 146.109375 C-257.62953625 149.99455701 -266.04169513 157.20865257 -274 165 C-274.61359375 165.5775 -275.2271875 166.155 -275.859375 166.75 C-280.0305895 171.03601857 -282.85409497 175.96694109 -285.6875 181.1875 C-286.24062866 182.19296875 -286.24062866 182.19296875 -286.80493164 183.21875 C-287.96659652 185.44612641 -289.00125146 187.69485988 -290 190 C-290.38309326 190.87599854 -290.76618652 191.75199707 -291.16088867 192.65454102 C-293.82782221 199.81259766 -294.25799296 206.11490038 -294.15234375 213.69140625 C-294.14097885 214.65064499 -294.12961395 215.60988373 -294.11790466 216.59819031 C-294.05616074 220.59532002 -293.9780485 224.58847 -293.81176758 228.58276367 C-293.13316519 246.36967022 -293.13316519 246.36967022 -297.81152344 251.90234375 C-300.93963348 254.99422053 -304.42883519 257.44639472 -308 260 C-317.59144772 269.97875307 -323.36142307 282.76216233 -327 296 C-327.22558594 296.80953125 -327.45117188 297.6190625 -327.68359375 298.453125 C-332.32652383 318.81797694 -328.51329413 340.08179676 -317.86425781 357.90039062 C-316.06620084 360.72140232 -314.22693294 363.48847567 -312.30859375 366.23046875 C-311 369 -311 369 -311.53515625 371.36328125 C-312.01855469 372.23339844 -312.50195312 373.10351562 -313 374 C-324.00346538 394.66059801 -323.38857242 420.15321763 -316.8125 442.1875 C-309.9780081 463.54079418 -294.4736989 478.62004462 -275 489 C-270.7584083 490.91012077 -266.40219765 492.50137952 -262 494 C-261.90203125 495.16015625 -261.8040625 496.3203125 -261.703125 497.515625 C-260.84453368 506.8095519 -259.64393488 515.31848496 -256 524 C-255.66355469 524.82371094 -255.32710938 525.64742187 -254.98046875 526.49609375 C-246.03397733 546.25424617 -228.04776106 561.30001649 -208.046875 568.96875 C-190.28805113 574.97942885 -170.29519827 574.66558534 -152 571 C-151.443125 571.7734375 -150.88625 572.546875 -150.3125 573.34375 C-139.87306613 587.59216649 -128.64981025 597.39716096 -112 604 C-110.98550781 604.41636719 -109.97101563 604.83273437 -108.92578125 605.26171875 C-91.0388488 611.29458946 -66.69612533 610.11975212 -49 604 C-48.35192383 603.78037598 -47.70384766 603.56075195 -47.03613281 603.33447266 C-39.13905631 600.60621615 -32.12701101 597.18196602 -25.3671875 592.22265625 C-23 591 -23 591 -20.4921875 591.13671875 C-17.81016999 592.06575616 -15.66385805 593.25863547 -13.25 594.75 C-3.71861853 600.10978768 8.01686709 603.7078954 19 604 C19.93328125 604.05027344 20.8665625 604.10054687 21.828125 604.15234375 C39.51696573 604.69695092 58.07959285 600.72244813 71.8515625 589.125 C74 588 74 588 76.4609375 588.609375 C79.07477042 590.04095118 81.5318846 591.57950726 84 593.25 C97.50700484 601.91249244 112.84929208 607.34369915 129 608 C129.95648437 608.03996094 130.91296875 608.07992187 131.8984375 608.12109375 C154.47088262 608.58565981 177.0084396 603.05423501 193.81103516 587.34936523 C197.88989327 583.34670255 201.26251243 578.9409891 204.4765625 574.21484375 C206 572 206 572 208 570 C210.52734375 570.4609375 210.52734375 570.4609375 213.9375 571.375 C230.91714087 575.27175569 249.96715433 575.07804558 266 568 C266.61117676 567.73767578 267.22235352 567.47535156 267.85205078 567.20507812 C276.14573167 563.59404714 283.30416932 559.09395826 290 553 C291.37478516 551.76443359 291.37478516 551.76443359 292.77734375 550.50390625 C305.66053305 538.32761349 315.53039023 521.55790275 316.11328125 503.48828125 C316.12354951 500.32223296 316.0892848 497.16465004 316 494 C316.57105469 493.86464844 317.14210938 493.72929688 317.73046875 493.58984375 C336.68359741 488.55777303 354.29537039 475.54830594 364.40625 458.7734375 C364.9321875 457.85820313 365.458125 456.94296875 366 456 C366.4640625 455.20851563 366.928125 454.41703125 367.40625 453.6015625 C377.89807885 434.34521808 378.81639587 408.42004234 374.09765625 387.33984375 C373.07910908 384.24070558 371.76031314 381.52796397 370.23413086 378.65258789 C368.72994501 375.75140189 367.67703588 373.20856134 367 370 C368.36645068 366.25101993 370.32308521 363.30663407 372.6875 360.140625 C384.61913928 343.93616895 385.08593427 320.04130203 382.53125 300.80859375 C378.8579684 281.58945966 368.89480196 263.1311167 353.37207031 250.93530273 C350.01119945 246.77641529 350.3212887 243.50623966 350.3984375 238.30859375 C350.39043121 237.36750259 350.38242493 236.42641144 350.37417603 235.45680237 C350.3511339 232.44993004 350.36053792 229.44440807 350.375 226.4375 C350.4398434 204.416245 350.4398434 204.416245 343.25 183.8125 C342.89929443 183.13179443 342.54858887 182.45108887 342.18725586 181.74975586 C339.33071991 176.34548124 336.13078861 171.52628965 332 167 C331.31164062 166.24332031 330.62328125 165.48664063 329.9140625 164.70703125 C319.59010925 153.89404864 306.12850473 145.926222 292 141 C291.01 141 290.02 141 289 141 C288.9071875 139.0509375 288.9071875 139.0509375 288.8125 137.0625 C286.86948511 118.44631683 278.67809846 100.65500673 266 87 C265.2678125 86.19949219 264.535625 85.39898437 263.78125 84.57421875 C249.44070292 69.55199073 229.79451669 60.21912367 209.03515625 58.796875 C200.03726113 58.65498966 191.75023402 60.13186375 183 62 C181.33375629 62.33544117 179.66728041 62.66975023 178 63 C177.63261719 62.17242187 177.63261719 62.17242187 177.2578125 61.328125 C166.78119784 41.93662706 145.73640254 27.75759109 125.5625 20.1875 C124.05275267 19.75128783 122.52941042 19.36127805 121 19 C119.26169922 18.58621094 119.26169922 18.58621094 117.48828125 18.1640625 C92.69514928 12.8032216 67.44573189 15.42189144 45.7265625 29.0546875 C41.86353975 31.79919428 38.27361429 34.57089681 35.0625 38.0625 C34.381875 38.701875 33.70125 39.34125 33 40 C29.26061195 39.68637391 26.89995904 37.61038509 24 35.375 C-22.37126316 0.9963049 -81.21268866 12.59220198 -117.3125 55.765625 Z " fill="#38328C" transform="translate(483,194)"/>
<path d="M0 0 C3.4221718 1.46227028 5.52250488 3.36589632 8.0625 6.0625 C11.04513952 9.25269687 11.04513952 9.25269687 15 11 C32.1243879 30.45567833 35.35292923 55.20534288 34 80 C32.70654245 92.8450466 28.06681793 105.13024239 20.76928711 115.79931641 C19.39343434 117.78298206 19.39343434 117.78298206 18 121 C18.70765589 124.11037307 18.70765589 124.11037307 20.5625 127 C30.6266561 146.72663856 29.32124964 172.67182808 22.93359375 193.47265625 C15.23312227 215.20170945 -0.99524145 229.67790997 -21 240 C-29.76404494 244 -29.76404494 244 -33 244 C-32.95359375 244.7528125 -32.9071875 245.505625 -32.859375 246.28125 C-32.24748894 264.28818266 -38.16405137 281.07630673 -50.375 294.375 C-52.21446516 296.29203297 -54.09636138 298.14441958 -56 300 C-56.82628906 300.82371094 -57.65257812 301.64742187 -58.50390625 302.49609375 C-68.26635974 311.78844515 -79.23096434 316.99373382 -92 321 C-93.02609375 321.36867188 -94.0521875 321.73734375 -95.109375 322.1171875 C-100.7257929 323.39159558 -106.19577956 323.33791111 -111.9375 323.3125 C-113.13286377 323.31121094 -114.32822754 323.30992187 -115.55981445 323.30859375 C-124.68117213 323.20995115 -133.16389779 322.27330042 -142 320 C-142.58394531 321.01707031 -142.58394531 321.01707031 -143.1796875 322.0546875 C-153.67109399 339.50813331 -169.46347355 350.27040564 -189.0625 355.25 C-195.02513553 356.68167098 -200.86724979 357.76562738 -207 358 C-208.39992188 358.07734375 -208.39992188 358.07734375 -209.828125 358.15625 C-232.7114186 358.84619855 -254.79311061 351.97272906 -273 338 C-276.27234012 339.55935456 -279.29284111 341.4083169 -282.375 343.3125 C-301.54776928 354.48110346 -324.44868168 356.98493878 -345.91699219 351.51123047 C-353.53108691 349.37798761 -360.375264 346.65200494 -366.8515625 342.0390625 C-369.74537505 340.63950952 -370.98212239 340.95447205 -374 342 C-375.93199875 343.17150141 -377.82456783 344.40901714 -379.6875 345.6875 C-384.94291119 349.10779843 -390.23516596 351.42118043 -396.1875 353.375 C-396.91090576 353.61307373 -397.63431152 353.85114746 -398.37963867 354.09643555 C-409.00949279 357.42298847 -419.04898195 358.41096884 -430.1875 358.375 C-430.87764191 358.3737915 -431.56778381 358.37258301 -432.27883911 358.37133789 C-453.13515158 358.27203221 -471.42860387 352.26895593 -487 338 C-487.63164062 337.43667969 -488.26328125 336.87335938 -488.9140625 336.29296875 C-493.73157274 331.76196242 -497.36088045 326.49739337 -501 321 C-501.72058594 321.144375 -502.44117188 321.28875 -503.18359375 321.4375 C-527.38174529 325.62061383 -551.87484072 324.19428076 -573.10546875 311.08203125 C-575.83604173 309.15252905 -578.42656815 307.13387051 -581 305 C-582.27617188 303.96746094 -582.27617188 303.96746094 -583.578125 302.9140625 C-598.70132496 290.06398155 -608.07967961 272.87895182 -610.46484375 253.15625 C-610.70715979 250.10240405 -610.89674911 247.06138902 -611 244 C-611.95519531 243.64808594 -612.91039062 243.29617188 -613.89453125 242.93359375 C-635.3907592 234.81422359 -652.7964197 221.2269926 -662.72265625 200.0546875 C-671.66451396 178.67079536 -673.74607247 151.87423559 -665.19384766 129.93164062 C-664.48796437 128.27669498 -663.74757883 126.63653359 -663 125 C-662.01 125 -661.02 125 -660 125 C-659.87402368 132.30662635 -659.87402368 132.30662635 -660.48828125 135.6875 C-663.68526515 156.38247972 -659.9732526 180.26146649 -647.63891602 197.37866211 C-636.06103543 212.70212 -620.94327614 220.9002875 -604 229 C-602 230 -602 230 -601.17797852 231.87011719 C-600.91428467 232.67094727 -600.65059082 233.47177734 -600.37890625 234.296875 C-600.08306641 235.1734375 -599.78722656 236.05 -599.48242188 236.953125 C-599.17884766 237.87609375 -598.87527344 238.7990625 -598.5625 239.75 C-596.76696944 245.18678931 -595.08699687 250.1427761 -592 255 C-591.3995533 256.67437339 -590.83795539 258.36310036 -590.3125 260.0625 C-583.84339068 278.33834876 -569.25596011 291.2794889 -552.1875 299.4375 C-538.95289675 305.4470029 -522.60870544 306.64354089 -508.8125 301.6875 C-506.53631466 300.80535393 -504.26484684 299.91086232 -502 299 C-500.19457826 298.4351891 -498.38256279 297.89068446 -496.5625 297.375 C-492.99361817 296.32915218 -489.53526103 295.12582664 -486.08203125 293.74609375 C-483.09782998 292.67670831 -480.05227214 291.85171187 -477 291 C-476.07767578 292.68029297 -476.07767578 292.68029297 -475.13671875 294.39453125 C-474.32057898 295.8673352 -473.50415799 297.33998334 -472.6875 298.8125 C-472.28337891 299.55048828 -471.87925781 300.28847656 -471.46289062 301.04882812 C-471.06650391 301.76103516 -470.67011719 302.47324219 -470.26171875 303.20703125 C-469.90037842 303.8616333 -469.53903809 304.51623535 -469.16674805 305.19067383 C-468.04819579 307.0708178 -468.04819579 307.0708178 -466.35864258 308.61206055 C-465 310 -465 310 -465 312 C-464.43152344 312.268125 -463.86304688 312.53625 -463.27734375 312.8125 C-460.1036621 314.46738717 -457.25116073 316.52093167 -454.31640625 318.5625 C-444.68500731 324.53948956 -431.2284186 322.85852067 -420.4375 320.9375 C-411.37860483 318.67541883 -404.54455026 313.80389384 -399.25 306.1328125 C-397.15904689 302.56512376 -395.51268301 298.84399447 -394 295 C-391.00555842 297.87386004 -388.47172499 300.90484968 -385.9375 304.1875 C-373.25927395 319.66481491 -355.7763571 328.65400134 -336 331 C-309.42638598 332.40088993 -285.09838352 327.08967954 -264.58203125 309.45703125 C-255.2031513 300.53219692 -248.58096382 290.03361594 -242 279 C-241.58041016 279.84111328 -241.58041016 279.84111328 -241.15234375 280.69921875 C-240.77207031 281.45847656 -240.39179687 282.21773437 -240 283 C-239.63003906 283.76957031 -239.26007813 284.53914063 -238.87890625 285.33203125 C-234.53174468 293.5232704 -228.83478375 297.6149789 -220.32421875 301.09375 C-203.81319195 306.13813725 -184.95023478 303.79194414 -169.890625 295.7890625 C-160.34951296 289.88388775 -152.8387478 281.79293773 -149.625 270.875 C-149.41875 269.92625 -149.2125 268.9775 -149 268 C-150.32 267.34 -151.64 266.68 -153 266 C-153 265.67 -153 265.34 -153 265 C-152.03320312 264.90203125 -151.06640625 264.8040625 -150.0703125 264.703125 C-138.00352667 263.31723673 -128.87015921 260.33317645 -119 253 C-118.40574219 252.57203125 -117.81148437 252.1440625 -117.19921875 251.703125 C-102.55705978 240.25867891 -97.52593282 224.51724145 -95 207 C-93.47632813 206.94392578 -93.47632813 206.94392578 -91.921875 206.88671875 C-69.77770494 205.90595573 -53.7483606 198.66961148 -38.5 182.25 C-35.56975694 178.99628855 -33.14392372 175.82058202 -31 172 C-29.66507891 176.00476327 -30.91203139 178.71303284 -32.1875 182.5625 C-32.42307617 183.28630859 -32.65865234 184.01011719 -32.90136719 184.75585938 C-33.58827299 186.84174159 -34.29101325 188.92153548 -35 191 C-35.30035156 191.89589844 -35.60070312 192.79179688 -35.91015625 193.71484375 C-38.93438785 201.94356694 -43.61187812 209.44267898 -48 217 C-28.49392743 208.0058455 -16.99139806 196.27151296 -8.8125 176.06640625 C-3.19403868 160.51235707 -1.15791964 141.75007745 -7 126 C-8.8219659 122.21698683 -10.81838438 118.58660432 -13 115 C-11.92621094 114.50371094 -10.85242188 114.00742187 -9.74609375 113.49609375 C3.33310719 107.3110222 11.60988394 100.89612411 17.19140625 87.04296875 C18.23281857 84.04938868 19.15093059 81.05338423 20 78 C20.226875 77.20078125 20.45375 76.4015625 20.6875 75.578125 C25.48124373 55.73735232 21.31613638 32.9760923 10.875 15.76171875 C8.64311876 12.47434368 6.1485304 9.59463803 3.4453125 6.69140625 C1.68648533 4.6331031 0.73155435 2.60108213 0 0 Z " fill="#DDCFFE" transform="translate(832,444)"/>
<path d="M0 0 C2.43119623 1.87015094 3.64069173 3.28138345 5 6 C5.07194869 8.88370333 5.09291708 11.74239664 5.0625 14.625 C5.05798828 15.42679687 5.05347656 16.22859375 5.04882812 17.0546875 C5.03703168 19.03649006 5.01909605 21.01825433 5 23 C5.99902344 22.96390625 6.99804688 22.9278125 8.02734375 22.890625 C12.14771555 23.0040669 15.58558618 23.68948965 19.5625 24.75 C20.82191406 25.07484375 22.08132813 25.3996875 23.37890625 25.734375 C27.9985749 27.34901647 31.54249358 29.54249358 35 33 C35.49407874 37.28201573 35.27333286 39.50046064 33.1875 43.3125 C31 46 31 46 28 48 C22.4369655 47.55804392 16.99628288 46.17638051 11.5625 44.9375 C7.3240625 43.9784375 7.3240625 43.9784375 3 43 C3 51.25 3 59.5 3 68 C5.5575 68.53625 8.115 69.0725 10.75 69.625 C22.41163513 72.27491479 34.09646899 76.80734472 41.33984375 86.859375 C45.89115393 94.43949302 45.70253968 101.49856679 43.875 109.9375 C41.5155674 118.68063108 36.69359719 126.05196102 29 131 C22.15418671 134.34779584 15.82834439 136.15455837 8.1875 136.0625 C7.21167969 136.05347656 6.23585938 136.04445313 5.23046875 136.03515625 C4.12638672 136.01775391 4.12638672 136.01775391 3 136 C3.05220703 137.51980469 3.05220703 137.51980469 3.10546875 139.0703125 C3.13362595 140.4218583 3.16092403 141.77342219 3.1875 143.125 C3.21263672 143.79015625 3.23777344 144.4553125 3.26367188 145.140625 C3.33325581 149.8723325 2.43536103 152.96355779 0 157 C-1 158 -1 158 -4.375 158.1875 C-8 158 -8 158 -11 156 C-11.99013879 153.28536652 -12.11940483 150.76143721 -12.09765625 147.890625 C-12.09443359 147.13652344 -12.09121094 146.38242187 -12.08789062 145.60546875 C-12.07951172 144.82816406 -12.07113281 144.05085937 -12.0625 143.25 C-12.05798828 142.45722656 -12.05347656 141.66445313 -12.04882812 140.84765625 C-12.03708565 138.89840492 -12.01915146 136.94919262 -12 135 C-12.79921875 135.03480469 -13.5984375 135.06960938 -14.421875 135.10546875 C-26.51054562 135.40342894 -37.37729452 133.7757382 -46.65234375 125.53125 C-48.83375674 123.052659 -49.00987439 120.86669577 -49.25 117.625 C-48.98284578 113.7512638 -48.34494559 112.03974428 -46 109 C-43 107 -43 107 -40.6875 107.125 C-38 108 -38 108 -35.375 109.875 C-28.85015928 113.98323305 -21.54590609 114.92201342 -14 116 C-13.34 106.43 -12.68 96.86 -12 87 C-15.3 86.34 -18.6 85.68 -22 85 C-32.15812504 82.61051908 -39.49566752 79.21554287 -46.375 71.25 C-51.08707021 61.82585958 -52.65118256 52.4365816 -49.375 42.375 C-44.94069304 31.47146439 -37.45570784 27.45942238 -27 23 C-23.71493752 21.9029131 -20.70439623 21.89637624 -17.25 21.9375 C-16.26515625 21.94652344 -15.2803125 21.95554687 -14.265625 21.96484375 C-13.14414062 21.98224609 -13.14414062 21.98224609 -12 22 C-12.02320313 20.90300781 -12.04640625 19.80601562 -12.0703125 18.67578125 C-12.08907921 17.221361 -12.10727844 15.76693336 -12.125 14.3125 C-12.14175781 13.59126953 -12.15851563 12.87003906 -12.17578125 12.12695312 C-12.21368559 7.97642808 -12.01006528 4.67574874 -10 1 C-6.80766515 -0.59616743 -3.46538503 -0.51466114 0 0 Z " fill="#AD85FD" transform="translate(355,420)"/>
<path d="M0 0 C3.6875 0.375 3.6875 0.375 5.90234375 2.41015625 C8.11665114 6.08774773 8.14406325 9.03637319 7.9375 13.1875 C7.91945313 13.88037109 7.90140625 14.57324219 7.8828125 15.28710938 C7.83601064 16.98367664 7.76427624 18.67952476 7.6875 20.375 C8.56148437 20.39626953 8.56148437 20.39626953 9.453125 20.41796875 C17.55712412 20.88942782 25.58250834 23.07993081 32.00390625 28.234375 C34.54556132 31.46599212 34.30951399 33.97145151 34.1328125 37.953125 C33.6875 40.375 33.6875 40.375 31.625 43.5625 C28.62202543 45.4153992 27.3447708 45.81398468 23.93359375 45.0390625 C22.82177734 44.71035156 22.82177734 44.71035156 21.6875 44.375 C20.58535156 44.05273438 19.48320313 43.73046875 18.34765625 43.3984375 C15.11624813 42.42305047 11.89914602 41.41335172 8.6875 40.375 C8.69273682 41.09155762 8.69797363 41.80811523 8.70336914 42.54638672 C8.72410667 45.78091562 8.73714984 49.01543056 8.75 52.25 C8.75837891 53.37792969 8.76675781 54.50585938 8.77539062 55.66796875 C8.77861328 56.74433594 8.78183594 57.82070313 8.78515625 58.9296875 C8.79039307 59.92468262 8.79562988 60.91967773 8.80102539 61.94482422 C8.6875 64.375 8.6875 64.375 7.6875 66.375 C8.52667969 66.48714844 8.52667969 66.48714844 9.3828125 66.6015625 C21.37919595 68.56881509 34.10503903 73.50546566 42.0859375 83.046875 C46.83277729 89.84731214 46.24796947 97.44836032 45.6875 105.375 C43.89086307 113.49233554 39.31847083 120.36180209 32.328125 124.91015625 C24.54307477 129.0565417 17.45535516 130.49162202 8.6875 130.375 C8.77451172 131.80392578 8.77451172 131.80392578 8.86328125 133.26171875 C9.22325751 143.26905879 9.22325751 143.26905879 7.71484375 146.3828125 C5.95223531 148.18315262 3.92589928 149.25580036 1.6875 150.375 C-1.53004366 150.375 -2.8901532 149.47861696 -5.3125 147.375 C-7.25724295 141.91119838 -7.51824807 137.13594586 -7.3125 131.375 C-8.17230469 131.40980469 -9.03210938 131.44460938 -9.91796875 131.48046875 C-20.95140211 131.7331428 -33.72029718 131.33575485 -42.3125 123.375 C-44.90289658 119.24065844 -45.12305263 115.12011017 -44.3125 110.375 C-41.85815105 106.73066369 -40.43616552 105.59532657 -36.125 104.75 C-32.56737097 105.33321787 -30.82488242 106.05629427 -27.75 107.75 C-21.58309106 111.11463502 -15.22259701 111.70788689 -8.3125 112.375 C-8.31773682 111.7044458 -8.32297363 111.0338916 -8.32836914 110.34301758 C-8.34921605 107.291188 -8.36218469 104.23937344 -8.375 101.1875 C-8.38337891 100.13240234 -8.39175781 99.07730469 -8.40039062 97.99023438 C-8.40361328 96.96865234 -8.40683594 95.94707031 -8.41015625 94.89453125 C-8.41539307 93.95714111 -8.42062988 93.01975098 -8.42602539 92.05395508 C-8.31332657 89.39450523 -7.90626649 86.96579427 -7.3125 84.375 C-8.4675 84.354375 -9.6225 84.33375 -10.8125 84.3125 C-21.98208371 83.04001578 -34.13454343 77.01818165 -41.3125 68.375 C-46.35842761 60.59349928 -47.36793896 52.53905172 -46.3125 43.375 C-43.45575877 34.73335779 -39.12486464 28.61008236 -31.20703125 24.203125 C-23.64624693 20.70768702 -15.50563013 20.14755321 -7.3125 19.375 C-7.36470703 18.05435547 -7.36470703 18.05435547 -7.41796875 16.70703125 C-7.44503906 15.54558594 -7.47210937 14.38414062 -7.5 13.1875 C-7.55220703 11.46466797 -7.55220703 11.46466797 -7.60546875 9.70703125 C-7.13763507 4.38620283 -5.42095777 0.61369333 0 0 Z " fill="#AD85FD" transform="translate(658.3125,422.625)"/>
<path d="M0 0 C3.09765625 1.94140625 3.09765625 1.94140625 6.0625 4.5625 C17.36369055 13.9486005 30.82559935 18.64361039 45 22 C45.78560303 22.18763916 46.57120605 22.37527832 47.38061523 22.56860352 C55.73849753 24.33216456 64.06435647 24.35599077 72.5625 24.3125 C73.31700439 24.31034485 74.07150879 24.3081897 74.84887695 24.30596924 C100.19845255 24.18966828 124.3185297 19.4804194 144.8125 3.5625 C148.01340532 1.16298582 150.32279572 -0.54549623 154.375 -0.75 C159.12917089 0.23362156 161.4883576 1.91249383 164.3125 5.8125 C165.77682989 10.47173147 165.59545373 14.50688398 163.4375 18.875 C151.79241067 35.67766372 120.2819118 42.72416056 101.703125 46.38671875 C92.48008227 47.91416359 83.40987276 48.24174557 74.0625 48.25 C73.37369751 48.25067474 72.68489502 48.25134949 71.97521973 48.25204468 C61.04363437 48.23507214 50.65581806 47.53187819 40 45 C39.24396484 44.83371094 38.48792969 44.66742187 37.70898438 44.49609375 C19.77433212 40.52369333 -3.78263891 33.46176799 -15 18 C-16.63125565 14.7374887 -16.68851113 11.5120384 -16 8 C-11.99108564 1.53639654 -7.75533405 -1.17791055 0 0 Z " fill="#37328A" transform="translate(435,625)"/>
<path d="M0 0 C-1.87163283 32.17116303 -6.92530389 62.74033834 -21 92 C-21.52464844 93.09570312 -22.04929687 94.19140625 -22.58984375 95.3203125 C-27.59573766 105.05476547 -34.54969575 114.00455153 -42 122 C-42.66 122 -43.32 122 -44 122 C-44 122.66 -44 123.32 -44 124 C-52.94349435 132.3006807 -62.88268733 138.12041428 -74 143 C-74.93199219 143.42023438 -75.86398437 143.84046875 -76.82421875 144.2734375 C-109.11254787 157.42611062 -151.90058845 153.00226123 -183.4296875 140.25390625 C-202.93637904 131.88914234 -218.21379258 118.78636169 -231 102 C-230.505 101.01 -230.505 101.01 -230 100 C-229.34 100.845625 -228.68 101.69125 -228 102.5625 C-222.65002608 108.90266246 -216.27800765 113.63589192 -209.4375 118.25 C-208.49994873 118.88663574 -208.49994873 118.88663574 -207.54345703 119.53613281 C-201.96498977 123.22386728 -196.63064486 125.77364249 -190 127 C-187.7009745 127.77003505 -185.40996893 128.56420457 -183.125 129.375 C-154.60917509 139.15306366 -119.15537383 139.29933963 -90 132 C-89.24895996 131.81808105 -88.49791992 131.63616211 -87.72412109 131.44873047 C-73.32459298 127.84159549 -61.07266819 120.8810731 -50 111 C-49.18015625 110.27425781 -48.3603125 109.54851562 -47.515625 108.80078125 C-21.75665528 84.60174914 -13.98348951 48.47533755 -10.1262207 14.71289062 C-10.02140381 13.87822266 -9.91658691 13.04355469 -9.80859375 12.18359375 C-9.72407959 11.44681396 -9.63956543 10.71003418 -9.55249023 9.95092773 C-8.86973646 7.54001946 -7.87189395 6.63171146 -6 5 C-5.13375 4.113125 -4.2675 3.22625 -3.375 2.3125 C-1 0 -1 0 0 0 Z " fill="#D7C8FD" transform="translate(795,461)"/>
<path d="M0 0 C1.36984198 1.29579647 2.7151049 2.61992749 4 4 C3.23558594 3.855625 2.47117187 3.71125 1.68359375 3.5625 C-16.31038119 0.44441048 -31.72233755 1.3083499 -47 12 C-47.91845703 12.60714844 -47.91845703 12.60714844 -48.85546875 13.2265625 C-62.78157094 23.615371 -67.13306152 41.90604989 -70 58 C-73.33320791 57.45263498 -75.85227063 56.00872277 -78.71704102 54.26953125 C-93.10641777 45.53699424 -107.42308798 42.48760574 -124.1875 45.58984375 C-138.23486481 50.47490491 -150.72177884 65.55487919 -157.29296875 78.48828125 C-157.64294922 79.23658203 -157.64294922 79.23658203 -158 80 C-158.33 80 -158.66 80 -159 80 C-158.70202355 63.44876262 -152.79946904 51.23168007 -141.625 39.1875 C-132.81289529 30.81700418 -122.29741934 26.41211328 -110.25 26.5 C-109.37327637 26.50354492 -108.49655273 26.50708984 -107.59326172 26.51074219 C-97.44489531 26.76898939 -90.27961709 30.35151487 -82 36 C-81.76925781 35.03320312 -81.53851563 34.06640625 -81.30078125 33.0703125 C-77.34918299 17.04725218 -70.90686322 4.72214656 -56.5625 -4.52734375 C-38.4039632 -14.96296627 -16.95856506 -11.1569507 0 0 Z " fill="#C1AAFE" transform="translate(463,281)"/>
<path d="M0 0 C9.5289969 6.6394544 16.38064496 17.03592865 20 28 C20.61669174 31.67274191 20.92082004 35.27854209 21 39 C22.03640625 38.43410156 23.0728125 37.86820312 24.140625 37.28515625 C25.51028977 36.54403627 26.88008849 35.8031638 28.25 35.0625 C28.93191406 34.68931641 29.61382813 34.31613281 30.31640625 33.93164062 C30.98027344 33.57392578 31.64414062 33.21621094 32.328125 32.84765625 C32.9355957 32.51773682 33.54306641 32.18781738 34.16894531 31.84790039 C42.95195295 27.78078232 56.57426087 28.82032535 65.5625 31.5625 C71.33515061 33.85221058 76.20561149 37.08416436 81 41 C81.62519531 41.50015625 82.25039063 42.0003125 82.89453125 42.515625 C91.89576208 50.56187197 97.64641371 63.35594152 100 75 C100.05553413 76.99922884 100.07138306 79.00127429 100 81 C97.32809141 78.41521887 94.98017405 75.78426106 92.75 72.8125 C82.85197405 60.01441549 73.19828718 50.9194999 57 47 C40.27771151 44.92337594 28.78467727 51.87240454 15.59716797 61.05371094 C14 62 14 62 12 62 C11.85304688 61.16339844 11.70609375 60.32679688 11.5546875 59.46484375 C7.77104339 39.82903553 0.1399569 22.85645389 -16.8125 11.25 C-27.9138107 4.816038 -39.95066639 3.21461851 -52.46484375 5.68359375 C-55.01772968 6.37027735 -57.51021531 7.11380545 -60 8 C-43.17490809 -9.87666015 -20.99358875 -12.57292383 0 0 Z " fill="#C0AAFE" transform="translate(618,278)"/>
<path d="M0 0 C0 0.66 0 1.32 0 2 C0.99 2.33 1.98 2.66 3 3 C2.74460449 3.57685547 2.48920898 4.15371094 2.22607422 4.74804688 C-0.65192606 11.54351183 -2.35174496 18.29527091 -3.875 25.5 C-10.28681454 54.33486921 -20.83301296 81.04105558 -41 103 C-41.60457031 103.68707031 -42.20914063 104.37414062 -42.83203125 105.08203125 C-62.76244418 126.62705991 -95.37335006 137.89332384 -124.02490234 139.21142578 C-140.77883538 139.81615802 -157.56666455 139.6172937 -174 136 C-175.06347656 135.77183594 -176.12695312 135.54367187 -177.22265625 135.30859375 C-195.78087318 130.74081884 -214.05051775 121.09408285 -226 106 C-222.50631448 106 -222.2386659 106.39964284 -219.8125 108.6875 C-216.21361701 111.9035231 -212.4067508 114.96377721 -208 117 C-207.01 116.505 -207.01 116.505 -206 116 C-203.49077369 117.01806318 -201.07045889 118.09556766 -198.625 119.25 C-191.85851246 122.3252629 -185.31360608 124.5536908 -178 126 C-177.11183594 126.19207031 -176.22367187 126.38414062 -175.30859375 126.58203125 C-140.17132232 133.69131906 -96.822281 130.23099584 -66 111 C-34.70778004 90.0550741 -21.76286111 57.9209963 -13.8125 22.3125 C-13.29963114 20.0283855 -12.78448368 17.74488061 -12.2631073 15.46269226 C-11.94295256 14.06038342 -11.62764149 12.65695654 -11.31806946 11.25227356 C-10.564705 7.94306487 -9.84680604 4.87516581 -8 2 C-5.08510357 0.50518132 -3.29223784 0 0 0 Z " fill="#D6C8FD" transform="translate(499,468)"/>
<path d="M0 0 C1.6117338 2.1194053 3.17650179 4.25517348 4.69140625 6.4453125 C14.03669437 19.82916981 25.77091037 31.27647474 42.00390625 35.546875 C49.27340116 36.64630317 56.66046861 36.78147186 64 37 C64.09796875 37.88300781 64.1959375 38.76601563 64.296875 39.67578125 C66.41437088 56.6705111 72.89588552 71.58606932 86.20703125 82.87109375 C96.36116689 90.49899855 107.51393185 93.63082395 120 95 C115.64965753 99.81990325 109.93904437 101.69098048 103.58203125 102.359375 C90.14169675 102.65251207 78.74047542 98.65262885 68.5625 89.66015625 C59.18542844 79.69701772 50.29763848 66.32592727 49.92578125 52.17578125 C49.96251953 51.09876953 49.96251953 51.09876953 50 50 C48.906875 50.0825 47.81375 50.165 46.6875 50.25 C35.36981572 50.1902235 24.3134746 43.25551096 16.25 35.75 C7.85686211 26.65576468 0 12.69214672 0 0 Z " fill="#C1ABFE" transform="translate(223,613)"/>
<path d="M0 0 C2.19991818 6.59975454 -2.59735098 16.1059267 -5.54296875 22.18359375 C-12.90993932 34.52020717 -23.37502146 41.21875843 -36.5 46.375 C-41.66590492 47.29748302 -46.76768943 47.15464957 -52 47 C-51.896875 48.19625 -51.79375 49.3925 -51.6875 50.625 C-51.75373363 64.66652922 -60.15215797 76.03563565 -69.375 85.8125 C-78.21512699 94.27419689 -88.3097851 99.02050746 -100.625 99.3125 C-108.36859208 99.06982333 -115.01401602 97.27003505 -122 94 C-122 93.67 -122 93.34 -122 93 C-121.03320312 92.90203125 -120.06640625 92.8040625 -119.0703125 92.703125 C-107.00352667 91.31723673 -97.87015921 88.33317645 -88 81 C-87.40574219 80.57203125 -86.81148437 80.1440625 -86.19921875 79.703125 C-71.55705978 68.25867891 -66.52593282 52.51724145 -64 35 C-62.98421875 34.96261719 -61.9684375 34.92523437 -60.921875 34.88671875 C-38.77770494 33.90595573 -22.7483606 26.66961148 -7.5 10.25 C-4.56975694 6.99628855 -2.14392372 3.82058202 0 0 Z " fill="#C1ABFE" transform="translate(801,616)"/>
<path d="M0 0 C2.61956825 0.93757928 4.63481662 2.25908281 6.921875 3.83984375 C7.72109375 4.38769531 8.5203125 4.93554688 9.34375 5.5 C9.94703125 5.92152344 10.5503125 6.34304687 11.171875 6.77734375 C10.676875 7.91171875 10.181875 9.04609375 9.671875 10.21484375 C6.90422989 18.43944951 7.53298621 28.01347582 8.67407227 36.52197266 C9.21245667 40.70924875 9.33324814 44.82893528 9.33984375 49.046875 C9.34317215 49.80852463 9.34650055 50.57017426 9.34992981 51.35490417 C9.35495791 52.95575361 9.35733942 54.55661338 9.35717773 56.1574707 C9.35936002 58.57325988 9.37754825 60.9885884 9.39648438 63.40429688 C9.46271171 81.13826488 6.89595162 96.41440135 -5.828125 109.77734375 C-7.313125 110.76734375 -7.313125 110.76734375 -8.828125 111.77734375 C-8.68737549 110.80394043 -8.54662598 109.83053711 -8.40161133 108.82763672 C-6.9009515 97.78025502 -6.48650429 86.88152997 -6.51245117 75.73974609 C-6.51561415 72.91204295 -6.49202996 70.08538777 -6.46679688 67.2578125 C-6.43111644 56.54774525 -7.27669157 46.40990243 -9.14038086 35.86767578 C-9.97256264 31.12415177 -10.33329381 26.46828959 -10.265625 21.65234375 C-10.25950195 20.86593506 -10.25337891 20.07952637 -10.24707031 19.26928711 C-10.04899529 11.94432041 -8.25756789 6.96598755 -3.828125 1.15234375 C-1.828125 -0.22265625 -1.828125 -0.22265625 0 0 Z " fill="#C2ADFE" transform="translate(505.828125,231.22265625)"/>
<path d="M0 0 C3.5578125 0.8353125 3.5578125 0.8353125 7.1875 1.6875 C8.29387817 1.93246216 8.29387817 1.93246216 9.42260742 2.18237305 C14.14739837 3.36979181 16.95015803 5.01038114 20 9 C20.76439676 13.25150196 19.45981437 17.08037126 17.5625 20.875 C12.44658306 25.11746771 6.50124526 26 0 26 C0 17.42 0 8.84 0 0 Z " fill="#2F2C7E" transform="translate(358,510)"/>
<path d="M0 0 C13.9266055 2.81345566 13.9266055 2.81345566 18 7 C19.20671724 11.18978222 18.4771041 15.0024187 16.625 18.875 C11.80993972 22.77290594 6.11227796 24 0 24 C0 16.08 0 8.16 0 0 Z " fill="#332F83" transform="translate(665,510)"/>
<path d="M0 0 C0 7.26 0 14.52 0 22 C-7.93846154 22 -7.93846154 22 -11.25 20.6875 C-11.89453125 20.44386719 -12.5390625 20.20023437 -13.203125 19.94921875 C-15.2702402 18.85724268 -16.54896799 17.83680487 -18 16 C-18.7618796 9.25192352 -18.7618796 9.25192352 -16.390625 5.35546875 C-13.43503479 2.4433431 -11.35565435 1.96172105 -7.3125 1.1875 C-6.15363281 0.95417969 -4.99476563 0.72085937 -3.80078125 0.48046875 C-1 0 -1 0 0 0 Z " fill="#2E2B7D" transform="translate(342,462)"/>
<path d="M0 0 C0.33 7.59 0.66 15.18 1 23 C-12.35014409 20.42795389 -12.35014409 20.42795389 -14.921875 18.734375 C-17.2542727 14.98225697 -16.58899677 10.22431018 -16 6 C-14.1031157 3.34436198 -12.85514945 2.42757473 -10 1 C-8.48430078 0.77473094 -6.96207266 0.59167027 -5.4375 0.4375 C-4.63183594 0.35371094 -3.82617188 0.26992188 -2.99609375 0.18359375 C-1 0 -1 0 0 0 Z " fill="#2F2B7D" transform="translate(651,462)"/>
<path d="M0 0 C0.33 0 0.66 0 1 0 C0.9278125 0.57363281 0.855625 1.14726563 0.78125 1.73828125 C-1.91736449 26.43810002 -0.2365164 51.92256013 14 73 C14.53367188 73.79921875 15.06734375 74.5984375 15.6171875 75.421875 C24.87618611 88.26928935 39.53312016 97.11516752 54 103 C53.67 103.66 53.34 104.32 53 105 C43.32253156 100.43446909 34.38254231 95.74725946 26 89 C24.94425781 88.18982422 24.94425781 88.18982422 23.8671875 87.36328125 C9.26069313 75.53488483 0.69206016 56.62255383 -1.80371094 38.2199707 C-2.26211213 33.03559 -2.18467978 27.8254798 -2.1875 22.625 C-2.19974609 21.44421875 -2.21199219 20.2634375 -2.22460938 19.046875 C-2.23576866 12.36618314 -1.74808489 6.45340429 0 0 Z " fill="#100E67" transform="translate(163,583)"/>
<path d="M0 0 C3.60915288 2.78420365 6.78016054 5.78016054 10 9 C18.26732664 17.05028465 28.0386041 23.34620137 39 27 C38.34 27 37.68 27 37 27 C36.67 28.98 36.34 30.96 36 33 C21.2970498 27.78194743 8.64448628 14.55623705 0 2 C0 1.34 0 0.68 0 0 Z " fill="#CEBDFD" transform="translate(564,561)"/>
<path d="M0 0 C3.24565595 6.49131189 -0.56864886 20.57680761 -2.625 27.3125 C-6.98171702 38.80715929 -13.35620412 48.3069049 -22 57 C-22.55429687 57.56847656 -23.10859375 58.13695312 -23.6796875 58.72265625 C-24.77158204 59.82997303 -25.88249069 60.91853938 -27 62 C-27.66 61.67 -28.32 61.34 -29 61 C-28.28714844 60.32195313 -27.57429687 59.64390625 -26.83984375 58.9453125 C-15.02311785 47.76001014 -15.02311785 47.76001014 -9.38671875 32.91015625 C-9 31 -9 31 -7 28 C-6.75849227 25.48415109 -6.75849227 25.48415109 -6.875 22.8125 C-6.89304687 21.91144531 -6.91109375 21.01039063 -6.9296875 20.08203125 C-6.95289063 19.39496094 -6.97609375 18.70789063 -7 18 C-5.68 18 -4.36 18 -3 18 C-3.33 15.36 -3.66 12.72 -4 10 C-3.34 10 -2.68 10 -2 10 C-2.04125 8.72125 -2.0825 7.4425 -2.125 6.125 C-2.1953125 3.9453125 -2.1953125 3.9453125 -2 2 C-1.34 1.34 -0.68 0.68 0 0 Z " fill="#F1E8FC" transform="translate(799,686)"/>
<path d="M0 0 C0.33 0 0.66 0 1 0 C1.41277905 29.13902594 1.41277905 29.13902594 -1 42 C-0.34 42 0.32 42 1 42 C1.226875 41.34 1.45375 40.68 1.6875 40 C2.78812925 37.48427599 3.89373793 35.66479527 5.4375 33.4375 C8.35242522 28.82681981 9.36860323 24.32014542 10.3125 19 C10.48072266 18.12988281 10.64894531 17.25976562 10.82226562 16.36328125 C11.22963166 14.24497787 11.61694816 12.12283479 12 10 C12.33 10 12.66 10 13 10 C14.15696407 22.82944606 9.55018185 32.63401473 1.96484375 42.7578125 C0.10957807 44.87495465 -1.73247427 46.35737829 -4 48 C-3.87153687 46.77821045 -3.87153687 46.77821045 -3.74047852 45.53173828 C-2.15664334 30.36927023 -0.59887283 15.24028096 0 0 Z " fill="#B59CFE" transform="translate(501,295)"/>
<path d="M0 0 C0.99 0.495 0.99 0.495 2 1 C-0.15970477 4.23955716 -1.57684925 4.83263881 -5.09130859 6.22753906 C-8.0803702 7.43723348 -10.92476362 8.94247533 -13.8125 10.375 C-22.23867866 14.40022419 -30.92260606 16.89635687 -40 19 C-41.06347656 19.2475 -42.12695312 19.495 -43.22265625 19.75 C-53.98176686 21.79125419 -65.0968777 21.18164884 -76 21 C-76 20.67 -76 20.34 -76 20 C-75.05084717 19.93268677 -75.05084717 19.93268677 -74.08251953 19.86401367 C-47.53990201 17.9365655 -22.6707756 15.1138504 0 0 Z " fill="#120F6B" transform="translate(577,631)"/>
<path d="M0 0 C0.66 0.33 1.32 0.66 2 1 C1.01 2.485 1.01 2.485 0 4 C1.18142578 3.83951172 1.18142578 3.83951172 2.38671875 3.67578125 C16.0759885 2.16915156 26.74129471 5.05635793 38 13 C41.12943176 15.54266331 44.10934683 18.18964275 47 21 C46.67 21.66 46.34 22.32 46 23 C45.443125 22.48050781 44.88625 21.96101563 44.3125 21.42578125 C32.54694918 10.67381673 21.13604297 5.05199201 4.87109375 5.66015625 C-0.32811784 6.11659561 -5.09161296 7.25294699 -10 9 C-6.83047153 5.73991357 -3.60062011 2.77762123 0 0 Z " fill="#B69CFE" transform="translate(568,277)"/>
<path d="M0 0 C1.6117338 2.1194053 3.17650179 4.25517348 4.69140625 6.4453125 C9.54571382 13.39741061 14.8430495 19.18370045 21 25 C17.47967572 25 16.5614657 24.29648649 14 22 C14 21.34 14 20.68 14 20 C13.01 19.67 12.02 19.34 11 19 C9.29413425 17.37347684 7.6222454 15.70993434 6 14 C8.61217721 20.11745875 8.61217721 20.11745875 11.8125 25.9375 C12.204375 26.618125 12.59625 27.29875 13 28 C12.67 28.66 12.34 29.32 12 30 C7.59591302 24.51831727 4.93832347 18.76430802 2.625 12.1875 C2.23127197 11.07580444 2.23127197 11.07580444 1.82958984 9.94165039 C0.63821256 6.42544936 0 3.74794121 0 0 Z " fill="#B99FFE" transform="translate(223,613)"/>
<path d="M0 0 C2.83352171 2.73344147 5.29067639 5.567107 7.6875 8.6875 C17.49334169 20.980853 29.04958359 29.82653006 43 37 C42.505 37.99 42.505 37.99 42 39 C29.23344768 32.48090945 16.88066119 24.41799296 8 13 C7.319375 12.525625 6.63875 12.05125 5.9375 11.5625 C2.37268574 8.68764979 0.8493959 4.41685869 0 0 Z " fill="#EFE6FC" transform="translate(557,549)"/>
<path d="M0 0 C4.29 0 8.58 0 13 0 C13.06058594 1.18078125 13.12117188 2.3615625 13.18359375 3.578125 C13.26802582 5.1354277 13.35267249 6.69271879 13.4375 8.25 C13.47681641 9.02730469 13.51613281 9.80460938 13.55664062 10.60546875 C13.61948242 11.73662109 13.61948242 11.73662109 13.68359375 12.890625 C13.72025146 13.58188477 13.75690918 14.27314453 13.79467773 14.98535156 C13.9878141 17.35620639 13.9878141 17.35620639 15 21 C17.97 21.66 20.94 22.32 24 23 C23.67 23.66 23.34 24.32 23 25 C21.53890937 24.74445946 20.08111904 24.46999628 18.625 24.1875 C17.81289063 24.03667969 17.00078125 23.88585937 16.1640625 23.73046875 C14 23 14 23 12 20 C10.49509454 14.13086869 10.91242358 8.01358093 11 2 C9.9275 2.04125 8.855 2.0825 7.75 2.125 C4 2 4 2 0 0 Z " fill="#1E1F72" transform="translate(330,555)"/>
<path d="M0 0 C-6.13658838 2.18189809 -11.49331109 2.16065899 -18 2 C-18 6.95 -18 11.9 -18 17 C-18.66 17 -19.32 17 -20 17 C-20.02684679 14.35409986 -20.04676357 11.70846904 -20.0625 9.0625 C-20.07087891 8.30775391 -20.07925781 7.55300781 -20.08789062 6.77539062 C-20.09652441 4.85005687 -20.05224333 2.92464419 -20 1 C-18.02965069 -0.97034931 -14.38753628 -0.45324839 -11.6875 -0.625 C-11.01009766 -0.6765625 -10.33269531 -0.728125 -9.63476562 -0.78125 C-6.23132333 -1.00748077 -3.25055604 -1.11972881 0 0 Z " fill="#BD90F9" transform="translate(376,554)"/>
<path d="M0 0 C1.58246707 -0.08153933 3.16616273 -0.13943557 4.75 -0.1875 C6.07257813 -0.23970703 6.07257813 -0.23970703 7.421875 -0.29296875 C10.50552873 0.05744645 11.77393014 0.87330826 14 3 C16.61998762 9.1569709 16.19501903 15.40185624 16 22 C18.31 22.33 20.62 22.66 23 23 C23 23.33 23 23.66 23 24 C20.03 24 17.06 24 14 24 C13.95101563 22.81921875 13.90203125 21.6384375 13.8515625 20.421875 C13.77651121 18.86456063 13.70096439 17.30727009 13.625 15.75 C13.5940625 14.97269531 13.563125 14.19539063 13.53125 13.39453125 C13.3231434 7.89450381 13.3231434 7.89450381 11 3 C8.47524538 1.73762269 6.68799534 1.90143596 3.875 1.9375 C2.96492188 1.94652344 2.05484375 1.95554687 1.1171875 1.96484375 C0.06917969 1.98224609 0.06917969 1.98224609 -1 2 C-0.67 1.34 -0.34 0.68 0 0 Z " fill="#0E125D" transform="translate(346,419)"/>
<path d="M0 0 C3.6024118 3.40227781 6.28027138 6.8735152 9 11 C9.66 11.33 10.32 11.66 11 12 C11 12.66 11 13.32 11 14 C11.66 14 12.32 14 13 14 C14.07966345 15.1144913 15.15723595 16.23105568 16.2265625 17.35546875 C20.13764496 20.98226548 24.64865272 23.92890901 29 27 C28.01 27.33 27.02 27.66 26 28 C23.8186763 26.66611903 21.9259315 25.33376521 19.9375 23.75 C19.36402832 23.30052002 18.79055664 22.85104004 18.19970703 22.38793945 C11.11064093 16.68184167 4.31348441 10.09121758 0 2 C0 1.34 0 0.68 0 0 Z " fill="#EAE2FA" transform="translate(233,727)"/>
<path d="M0 0 C2.475 0.495 2.475 0.495 5 1 C4.01 1.33 3.02 1.66 2 2 C2 8.6 2 15.2 2 22 C5.96 21.505 5.96 21.505 10 21 C8 23 8 23 0 24 C0 16.08 0 8.16 0 0 Z " fill="#1B1C70" transform="translate(665,510)"/>
<path d="M0 0 C0.99 0 1.98 0 3 0 C3.08333357 4.8333472 2.95261487 9.23692563 2 14 C1.67 13.34 1.34 12.68 1 12 C-2.0745356 12.7763932 -2.0745356 12.7763932 -4 15 C-3.50341703 9.33895411 -2.45489316 5.12325529 0 0 Z " fill="#E5D9FB" transform="translate(169,569)"/>
<path d="M0 0 C0.68126953 -0.020625 1.36253906 -0.04125 2.06445312 -0.0625 C7.10436864 -0.10199003 7.10436864 -0.10199003 9.53515625 1.765625 C9.87417969 2.25546875 10.21320312 2.7453125 10.5625 3.25 C9.76585937 3.29898437 8.96921875 3.34796875 8.1484375 3.3984375 C0.18092686 3.95029395 0.18092686 3.95029395 -7.4375 6.25 C-7.4375 5.59 -7.4375 4.93 -7.4375 4.25 C-8.0975 3.92 -8.7575 3.59 -9.4375 3.25 C-9.4375 2.59 -9.4375 1.93 -9.4375 1.25 C-6.41891234 -0.25929383 -3.30849046 0.02489927 0 0 Z " fill="#E8DDFA" transform="translate(508.4375,466.75)"/>
<path d="M0 0 C0.66 0.33 1.32 0.66 2 1 C1.15695312 1.83144531 0.31390625 2.66289063 -0.5546875 3.51953125 C-1.66159075 4.61705397 -2.7683543 5.71471759 -3.875 6.8125 C-4.43058594 7.35970703 -4.98617187 7.90691406 -5.55859375 8.47070312 C-6.09355469 9.00244141 -6.62851562 9.53417969 -7.1796875 10.08203125 C-7.67194824 10.56905518 -8.16420898 11.0560791 -8.67138672 11.55786133 C-10.22588489 13.17003501 -10.22588489 13.17003501 -12 16 C-12.99 16.33 -13.98 16.66 -15 17 C-15.66 17.99 -16.32 18.98 -17 20 C-19.125 20.6875 -19.125 20.6875 -21 21 C-19.58120711 17.58602961 -17.99335857 16.0024227 -15 13.875 C-9.48011556 9.75528137 -4.77092386 4.95020701 0 0 Z " fill="#F7EFFE" transform="translate(755,562)"/>
<path d="M0 0 C3.38800799 1.129336 3.83362605 1.80115232 5.8125 4.625 C10.90314882 11.64184026 16.33630726 17.43564744 23 23 C17.68042944 23 14.08811616 18.15211342 10.45751953 14.54541016 C0 3.45728643 0 3.45728643 0 0 Z " fill="#171369" transform="translate(258,552)"/>
<path d="M0 0 C5.86805494 0.5193655 10.40777673 2.25839331 15.6875 4.8125 C16.43322266 5.15603516 17.17894531 5.49957031 17.94726562 5.85351562 C21.96351204 7.76311361 25.06412375 9.55286298 28 13 C25.69 12.67 23.38 12.34 21 12 C21 11.01 21 10.02 21 9 C20.17242188 8.73445312 19.34484375 8.46890625 18.4921875 8.1953125 C14.6463115 6.87893884 10.89140591 5.40054038 7.125 3.875 C6.43664062 3.59785156 5.74828125 3.32070312 5.0390625 3.03515625 C3.35873499 2.35835767 1.67927658 1.67940197 0 1 C0 0.67 0 0.34 0 0 Z " fill="#1C2170" transform="translate(608,196)"/>
<path d="M0 0 C0.66 0.33 1.32 0.66 2 1 C-0.50387877 5.94260085 -4.13209197 9.16385306 -8.1875 12.8125 C-8.84169922 13.40998047 -9.49589844 14.00746094 -10.16992188 14.62304688 C-11.77496945 16.08750634 -13.38681423 17.54451007 -15 19 C-15.66 18.67 -16.32 18.34 -17 18 C-16.59160889 17.5968457 -16.18321777 17.19369141 -15.76245117 16.77832031 C-13.90147279 14.93821617 -12.04446276 13.09415612 -10.1875 11.25 C-9.54490234 10.61578125 -8.90230469 9.9815625 -8.24023438 9.328125 C-7.61826172 8.709375 -6.99628906 8.090625 -6.35546875 7.453125 C-5.78465576 6.88754883 -5.21384277 6.32197266 -4.62573242 5.73925781 C-2.92652264 3.92139169 -1.45724172 2.01504683 0 0 Z " fill="#B47DFD" transform="translate(798,745)"/>
<path d="M0 0 C-8.94498889 3.240938 -17.44635605 5.35383866 -27 5 C-27 4.67 -27 4.34 -27 4 C-21.1152225 2.01077944 -16.25685023 0.88194622 -10 1 C-2.97297297 -0.99099099 -2.97297297 -0.99099099 0 0 Z " fill="#171467" transform="translate(714,591)"/>
<path d="M0 0 C0.99 0.33 1.98 0.66 3 1 C-1.02193856 4.50297874 -7.39433144 10 -13 10 C-13.33 10.99 -13.66 11.98 -14 13 C-15.98 13 -17.96 13 -20 13 C-16.7587919 9.23349266 -12.42412756 7.67299228 -8.0078125 5.59765625 C-4.91828827 4.08943577 -4.91828827 4.08943577 -2.3046875 1.74609375 C-1.54414062 1.16988281 -0.78359375 0.59367188 0 0 Z " fill="#161370" transform="translate(557,781)"/>
<path d="M0 0 C4.54074179 1.42358391 7.03973147 3.72132073 10.3125 7.125 C11.19550781 8.03507813 12.07851563 8.94515625 12.98828125 9.8828125 C13.65214844 10.58148438 14.31601562 11.28015625 15 12 C14.34 12.66 13.68 13.32 13 14 C7.7957801 9.75139368 3.67915561 5.63370702 0 0 Z " fill="#E8E0F4" transform="translate(637,232)"/>
<path d="M0 0 C1.70250393 1.28725907 3.37064759 2.62131719 5 4 C7.68507329 4.78946609 7.68507329 4.78946609 10 5 C10 5.66 10 6.32 10 7 C10.99 7.33 11.98 7.66 13 8 C8.50327323 7.7246902 5.97507076 7.22558716 2.4375 4.375 C-0.23271034 2.29283599 -0.67631213 1.99377523 -4.25 2.0625 C-7.16587399 2.92529767 -7.16587399 2.92529767 -10 5 C-7.70174657 -0.08898973 -5.55530554 -0.5446378 0 0 Z " fill="#151765" transform="translate(317,526)"/>
<path d="M0 0 C2.87506421 -0.02712325 5.74986908 -0.04689851 8.625 -0.0625 C9.83736328 -0.07506836 9.83736328 -0.07506836 11.07421875 -0.08789062 C15.50341918 -0.1058955 19.63883424 0.10377338 24 1 C24 1.33 24 1.66 24 2 C16.08 2.495 16.08 2.495 8 3 C8 2.34 8 1.68 8 1 C5.36 1 2.72 1 0 1 C0 0.67 0 0.34 0 0 Z " fill="#141269" transform="translate(384,403)"/>
<path d="M0 0 C4.74747618 0.49927332 7.41388485 2.53092485 11.125 5.4375 C15.48394367 8.82748053 15.48394367 8.82748053 20 12 C19.67 12.66 19.34 13.32 19 14 C17.07949774 12.75590105 15.16374686 11.50446565 13.25 10.25 C12.18265625 9.55390625 11.1153125 8.8578125 10.015625 8.140625 C7.35826454 6.25431213 5.25326 4.33163426 3 2 C2.01 1.34 1.02 0.68 0 0 Z " fill="#ECE4FA" transform="translate(272,572)"/>
<path d="M0 0 C0.33 1.32 0.66 2.64 1 4 C1.99 3.67 2.98 3.34 4 3 C2.73227358 7.54268633 1.01304104 10.40517258 -2 14 C-1.85970581 11.8537974 -1.71261836 9.70803782 -1.5625 7.5625 C-1.48128906 6.36753906 -1.40007812 5.17257812 -1.31640625 3.94140625 C-1 1 -1 1 0 0 Z " fill="#B79EFE" transform="translate(306,347)"/>
<path d="M0 0 C-11.63838847 9.54733049 -11.63838847 9.54733049 -18 12 C-18.99 11.67 -19.98 11.34 -21 11 C-20.00097656 10.45730469 -19.00195312 9.91460938 -17.97265625 9.35546875 C-16.66900073 8.63329987 -15.36562995 7.91061681 -14.0625 7.1875 C-13.40314453 6.83107422 -12.74378906 6.47464844 -12.06445312 6.10742188 C-8.00958993 3.97324509 -8.00958993 3.97324509 -6 0 C-3.42525708 -0.99667468 -2.51072708 -1.25536354 0 0 Z " fill="#121062" transform="translate(741,576)"/>
<path d="M0 0 C0.66 0.33 1.32 0.66 2 1 C0.92492371 2.29854721 -0.16043736 3.58858361 -1.25 4.875 C-1.85328125 5.59429687 -2.4565625 6.31359375 -3.078125 7.0546875 C-4.99274422 8.99265574 -6.53509447 9.90897624 -9 11 C-10.35113205 11.97581759 -11.68946944 12.97029741 -13 14 C-10.38256198 8.10428565 -5.28256657 3.59214527 0 0 Z " fill="#1F2274" transform="translate(209,334)"/>
<path d="M0 0 C0.66 0.33 1.32 0.66 2 1 C1.31292969 1.61488281 0.62585938 2.22976563 -0.08203125 2.86328125 C-1.43361328 4.07564453 -1.43361328 4.07564453 -2.8125 5.3125 C-3.70582031 6.11300781 -4.59914063 6.91351563 -5.51953125 7.73828125 C-6.95387384 9.04613064 -8.36399294 10.38407531 -9.69921875 11.79296875 C-11 13 -11 13 -13 13 C-11.50536684 9.3852622 -9.4391696 7.35564512 -6.5 4.8125 C-5.7059375 4.11769531 -4.911875 3.42289062 -4.09375 2.70703125 C-2 1 -2 1 0 0 Z " fill="#B79EFE" transform="translate(406,277)"/>
<path d="M0 0 C0.99 0.33 1.98 0.66 3 1 C3 7.27 3 13.54 3 20 C2.67 20 2.34 20 2 20 C1.67 17.69 1.34 15.38 1 13 C0.67 13 0.34 13 0 13 C0 8.71 0 4.42 0 0 Z " fill="#D1C4F5" transform="translate(162,594)"/>
<path d="M0 0 C6.55621097 2.24784376 10.68994846 5.88913561 14 12 C13.75 14.375 13.75 14.375 13 16 C9 9.25 9 9.25 9 7 C8.443125 6.773125 7.88625 6.54625 7.3125 6.3125 C4.36753316 4.64103234 2.31843456 2.44723648 0 0 Z " fill="#C492F7" transform="translate(689,498)"/>
<path d="M0 0 C3.26649474 3.17575878 6.15774261 6.44717827 9 10 C10.64783606 11.68528688 12.31002677 13.35697047 14 15 C9.80074991 14.50992733 8.03667401 12.26288984 5.3125 9.1875 C4.52488281 8.31480469 3.73726562 7.44210937 2.92578125 6.54296875 C1.15711057 4.20746243 0.39238175 2.85308083 0 0 Z " fill="#211E77" transform="translate(175,655)"/>
<path d="M0 0 C3.95304214 0.580913 6.72970679 1.78798491 10.125 3.875 C10.97320312 4.38804687 11.82140625 4.90109375 12.6953125 5.4296875 C14.72979947 6.81589727 16.3432854 8.1916906 18 10 C12.25 9.25 12.25 9.25 10 7 C6.89673011 4.45088545 3.61852618 2.72702386 0 1 C0 0.67 0 0.34 0 0 Z " fill="#B69CFE" transform="translate(449,275)"/>
<path d="M0 0 C0.66 0.33 1.32 0.66 2 1 C-0.77904424 4.60246476 -3.74106442 7.82682588 -7 11 C-7.66 11.66 -8.32 12.32 -9 13 C-8.68033924 7.72559742 -5.60963971 4.56176651 -2 1 C-1.34 0.67 -0.68 0.34 0 0 Z " fill="#C291FA" transform="translate(624,449)"/>
<path d="M0 0 C0.99 0.33 1.98 0.66 3 1 C3 1.99 3 2.98 3 4 C2.42765625 4.10183594 1.8553125 4.20367188 1.265625 4.30859375 C-1.40275646 5.12291016 -3.05965688 6.34673122 -5.25 8.0625 C-6.30960937 8.88427734 -6.30960937 8.88427734 -7.390625 9.72265625 C-7.92171875 10.14417969 -8.4528125 10.56570313 -9 11 C-7.59155282 7.78475695 -5.89655214 5.67816132 -3.375 3.25 C-2.74335938 2.63640625 -2.11171875 2.0228125 -1.4609375 1.390625 C-0.73777344 0.70226562 -0.73777344 0.70226562 0 0 Z " fill="#E3DAF9" transform="translate(451,564)"/>
<path d="M0 0 C3.96 0 7.92 0 12 0 C8.7897878 3.2102122 5.62539686 2.98974759 1.1875 3.0625 C0.135625 3.041875 -0.91625 3.02125 -2 3 C-1.34 2.67 -0.68 2.34 0 2 C0 1.34 0 0.68 0 0 Z " fill="#1D196D" transform="translate(389,592)"/>
<path d="M0 0 C2.26510339 2.13852409 4.04779168 4.32911607 5.75 6.9375 C6.19859375 7.60652344 6.6471875 8.27554688 7.109375 8.96484375 C8.18726604 11.42791933 7.90922753 12.52180058 7 15 C5.23772048 12.35658072 3.80128992 9.76922765 2.375 6.9375 C1.92898437 6.05964844 1.48296875 5.18179688 1.0234375 4.27734375 C0 2 0 2 0 0 Z " fill="#B17BF9" transform="translate(142,554)"/>
<path d="M0 0 C0.33 0 0.66 0 1 0 C1.33 3.63 1.66 7.26 2 11 C4.31 11.33 6.62 11.66 9 12 C9 12.33 9 12.66 9 13 C6.03 13 3.06 13 0 13 C0 8.71 0 4.42 0 0 Z " fill="#201E77" transform="translate(360,430)"/>
<path d="M0 0 C1.15957207 3.47871621 0.77456651 4.34219645 -0.4375 7.6875 C-0.72496094 8.49574219 -1.01242187 9.30398438 -1.30859375 10.13671875 C-1.53675781 10.75160156 -1.76492188 11.36648438 -2 12 C-2.33 10.68 -2.66 9.36 -3 8 C-3.99 8 -4.98 8 -6 8 C-5.38125 7.236875 -4.7625 6.47375 -4.125 5.6875 C-1.94402948 3.00374191 -1.94402948 3.00374191 0 0 Z " fill="#B89EFF" transform="translate(801,616)"/>
<path d="M0 0 C-4.99296295 2.9445679 -9.33557626 3.63495936 -15 4 C-12.83900627 1.83900627 -11.4789582 1.28436284 -8.625 0.3125 C-7.46871094 -0.09548828 -7.46871094 -0.09548828 -6.2890625 -0.51171875 C-3.79944692 -1.04278009 -2.38446982 -0.81115526 0 0 Z " fill="#E7E0F6" transform="translate(416,590)"/>
<path d="M0 0 C9.25961538 9.00240385 9.25961538 9.00240385 10 14 C6.07511907 10.29939798 2.97784457 6.5093075 0 2 C0 1.34 0 0.68 0 0 Z " fill="#B07AFA" transform="translate(856,434)"/>
<path d="M0 0 C3.9252025 3.70090521 6.94580156 7.54959656 10 12 C8.0625 11.1875 8.0625 11.1875 6 10 C5.67 9.01 5.34 8.02 5 7 C4.34 7 3.68 7 3 7 C0 2.61538462 0 2.61538462 0 0 Z " fill="#F1EDF9" transform="translate(256,551)"/>
<path d="M0 0 C2.4375 0.375 2.4375 0.375 5 1 C6.35439668 3.70879335 6.06501451 6.00933268 6 9 C2.91910327 6.22719294 1.31224548 3.93673644 0 0 Z " fill="#B79DFE" transform="translate(712,350)"/>
<path d="M0 0 C3.25524265 3.02272532 5.61820737 6.25718301 8 10 C7.34 10.66 6.68 11.32 6 12 C5.566875 11.2575 5.13375 10.515 4.6875 9.75 C3.0978775 7.03564674 3.0978775 7.03564674 1.3125 4.875 C0 3 0 3 0 0 Z " fill="#E4DBF7" transform="translate(557,549)"/>
<path d="M0 0 C2.64 0.33 5.28 0.66 8 1 C7.67 1.99 7.34 2.98 7 4 C4.69 3.67 2.38 3.34 0 3 C0 2.01 0 1.02 0 0 Z " fill="#E4D9F6" transform="translate(520,468)"/>
<path d="M0 0 C0.66 0.99 1.32 1.98 2 3 C3.8522367 4.00478037 3.8522367 4.00478037 6 4 C8.24755753 2.6483633 8.24755753 2.6483633 10 1 C10 1.99 10 2.98 10 4 C7 6 7 6 3.9375 5.8125 C1 5 1 5 -1 2 C-0.67 1.34 -0.34 0.68 0 0 Z " fill="#7B63D6" transform="translate(654,567)"/>
<path d="M0 0 C1.258125 0.12375 2.51625 0.2475 3.8125 0.375 C4.87404297 0.47941406 4.87404297 0.47941406 5.95703125 0.5859375 C8 1 8 1 11 3 C7.7 3 4.4 3 1 3 C0.67 2.01 0.34 1.02 0 0 Z " fill="#1A1672" transform="translate(589,798)"/>
<path d="M0 0 C0.66 0.33 1.32 0.66 2 1 C0.515 3.475 0.515 3.475 -1 6 C-1.66 5.67 -2.32 5.34 -3 5 C-5.09821215 5.39938767 -5.09821215 5.39938767 -7 6 C-2.25 1.125 -2.25 1.125 0 0 Z " fill="#1E1971" transform="translate(828,673)"/>
<path d="M0 0 C0.99 0.66 1.98 1.32 3 2 C2.01 2.33 1.02 2.66 0 3 C-0.99 4.485 -0.99 4.485 -2 6 C-4.125 6.6875 -4.125 6.6875 -6 7 C-4.60667426 3.63279613 -3.0210714 2.0140476 0 0 Z " fill="#E6DDFB" transform="translate(740,576)"/>
<path d="M0 0 C0.33 0 0.66 0 1 0 C0.88557539 1.60495567 0.75805306 3.20898119 0.625 4.8125 C0.55539062 5.70582031 0.48578125 6.59914063 0.4140625 7.51953125 C0 10 0 10 -2 13 C-3.71050559 8.02398374 -2.00885647 4.57383705 0 0 Z " fill="#423A8C" transform="translate(779,498)"/>
<path d="M0 0 C1 3 1 3 0.1875 5.0625 C-1 7 -1 7 -3 9 C-4 7 -4 7 -3.1875 3.9375 C-2 1 -2 1 0 0 Z " fill="#29237F" transform="translate(158,480)"/>
<path d="M0 0 C-1 3 -1 3 -3.3125 4.25 C-6.16597407 5.04631835 -7.24802325 4.8214856 -10 4 C-8.71086513 3.32845067 -7.41859796 2.66291141 -6.125 2 C-5.40570312 1.62875 -4.68640625 1.2575 -3.9453125 0.875 C-2 0 -2 0 0 0 Z " fill="#403B8F" transform="translate(558,419)"/>
<path d="M0 0 C2.475 0.99 2.475 0.99 5 2 C5 2.66 5 3.32 5 4 C5.99 4.33 6.98 4.66 8 5 C7.67 5.99 7.34 6.98 7 8 C5.83035398 6.8572081 4.66435444 5.71068285 3.5 4.5625 C2.8503125 3.92441406 2.200625 3.28632813 1.53125 2.62890625 C0 1 0 1 0 0 Z " fill="#AD78F6" transform="translate(819,339)"/>
<path d="M0 0 C2.31 0 4.62 0 7 0 C7 0.66 7 1.32 7 2 C4.29120665 3.35439668 1.99066732 3.06501451 -1 3 C-0.67 2.01 -0.34 1.02 0 0 Z " fill="#3F389B" transform="translate(390,819)"/>
<path d="M0 0 C4.83256305 0.41421969 6.82679218 2.46413986 10 6 C7 6 7 6 5 4.125 C4.34 3.42375 3.68 2.7225 3 2 C2.01 1.34 1.02 0.68 0 0 Z " fill="#E1D8F7" transform="translate(272,572)"/>
<path d="M0 0 C0.93423645 3.01031744 1.04449911 3.86650268 0 7 C-2.0625 8.1875 -2.0625 8.1875 -4 9 C-2.80100302 5.9168649 -1.52299523 2.93720508 0 0 Z " fill="#956CEF" transform="translate(876,555)"/>
</svg>
